<svg width="130" height="26" viewBox="0 0 130 26" fill="none" xmlns="http://www.w3.org/2000/svg">
<g clip-path="url(#clip0_2085_52)">
<path d="M7.83838 10.9254L12.8876 5.87639L17.9395 10.9281L20.8775 7.9901L12.8876 0L4.90039 7.98743L7.83838 10.9254Z" fill="white"/>
<path d="M5.76314 12.9997L2.8252 10.0618L-0.11289 12.9999L2.82505 15.9378L5.76314 12.9997Z" fill="white"/>
<path d="M7.83781 15.0747L12.887 20.1238L17.9387 15.0723L20.8784 18.0086L20.8769 18.0103L12.887 26.0001L4.89961 18.0129L4.89551 18.0088L7.83781 15.0747Z" fill="white"/>
<path d="M22.9496 15.9391L25.8877 13.001L22.9498 10.063L20.0117 13.0011L22.9496 15.9391Z" fill="white"/>
<path d="M15.8671 12.9987H15.8684L12.8871 10.0173L10.6838 12.2206H10.6836L10.4306 12.4738L9.9084 12.996L9.9043 13.0001L9.9084 13.0044L12.8871 15.9831L15.8684 13.0017L15.8698 13.0001L15.8671 12.9987Z" fill="white"/>
<path d="M30.4678 6.30005H36.8578C38.4437 6.30005 39.643 6.70706 40.4558 7.52108C41.0848 8.15151 41.3991 8.93288 41.3991 9.86498V9.90441C41.3991 10.2983 41.3505 10.6464 41.2525 10.9482C41.1548 11.2505 41.0242 11.5226 40.8609 11.7655C40.6981 12.0087 40.5087 12.222 40.2935 12.4056C40.0781 12.5896 39.8467 12.7473 39.5988 12.8783C40.396 13.1806 41.0236 13.5907 41.4811 14.1094C41.9384 14.6284 42.1674 15.3473 42.1674 16.2663V16.3055C42.1674 16.9359 42.0462 17.4873 41.8037 17.9602C41.5612 18.4327 41.2137 18.8268 40.7613 19.142C40.3089 19.4572 39.7649 19.6934 39.1292 19.8511C38.4934 20.0086 37.7888 20.0873 37.0157 20.0873H30.4678V6.30005ZM36.2189 11.874C36.8888 11.874 37.4206 11.7594 37.8143 11.5294C38.2082 11.2996 38.4051 10.9285 38.4051 10.4166V10.3771C38.4051 9.91776 38.2342 9.56661 37.8929 9.32347C37.5514 9.08053 37.059 8.95896 36.4158 8.95896H33.422V11.874H36.2189ZM37.0266 17.4286C37.6962 17.4286 38.2211 17.3074 38.6022 17.0643C38.983 16.8213 39.1735 16.4437 39.1735 15.9315V15.8923C39.1735 15.4327 38.9961 15.0684 38.6417 14.799C38.287 14.5302 37.7159 14.3955 36.928 14.3955H33.422V17.4288L37.0266 17.4286Z" fill="white"/>
<path d="M45.9727 6.30005H49.0061V20.0877H45.9727V6.30005Z" fill="white"/>
<path d="M53.6006 6.30005H56.3971L62.8577 14.7894V6.30005H65.8516V20.0877H63.2715L56.5942 11.3228V20.0877H53.6006V6.30005Z" fill="white"/>
<path d="M75.0354 6.20166H77.8321L83.7414 20.0877H80.5701L79.3095 16.9954H73.4793L72.2188 20.0877H69.126L75.0354 6.20166ZM78.2262 14.3164L76.3943 9.84545L74.5629 14.3164H78.2262Z" fill="white"/>
<path d="M87.0156 6.30005H89.8127L96.273 14.7894V6.30005H99.2668V20.0877H96.6867L90.0095 11.3228V20.0877H87.0156V6.30005Z" fill="white"/>
<path d="M110.183 20.3239C109.172 20.3239 108.233 20.1399 107.367 19.7725C106.5 19.4051 105.752 18.9026 105.121 18.2656C104.491 17.6288 103.998 16.877 103.644 16.0104C103.29 15.1436 103.112 14.2179 103.112 13.233V13.1938C103.112 12.2089 103.29 11.2867 103.644 10.4265C103.998 9.56643 104.491 8.81135 105.121 8.16141C105.751 7.51146 106.507 6.99911 107.386 6.62495C108.266 6.2508 109.238 6.06372 110.302 6.06372C110.944 6.06372 111.532 6.1165 112.064 6.22123C112.596 6.32657 113.078 6.47073 113.512 6.65452C113.945 6.83852 114.345 7.06174 114.714 7.32418C115.081 7.58703 115.422 7.87576 115.737 8.19098L113.808 10.4166C113.268 9.93094 112.721 9.5498 112.163 9.27422C111.604 8.99863 110.978 8.86063 110.282 8.86063C109.704 8.86063 109.169 8.97235 108.677 9.19557C108.184 9.41878 107.76 9.72723 107.406 10.1211C107.052 10.515 106.776 10.9715 106.578 11.49C106.382 12.0089 106.284 12.5636 106.284 13.1544V13.1936C106.284 13.7844 106.382 14.3427 106.578 14.8676C106.776 15.3931 107.048 15.8525 107.396 16.2464C107.744 16.6402 108.164 16.9524 108.656 17.1822C109.149 17.4122 109.691 17.5268 110.282 17.5268C111.07 17.5268 111.736 17.3824 112.281 17.0935C112.826 16.8049 113.367 16.4109 113.906 15.9116L115.836 17.8617C115.481 18.2426 115.113 18.5841 114.733 18.8858C114.352 19.1881 113.935 19.4472 113.482 19.6641C113.029 19.8805 112.533 20.045 111.995 20.1563C111.456 20.2678 110.853 20.3239 110.183 20.3239Z" fill="white"/>
<path d="M119.406 6.30005H129.786V8.9986H122.4V11.7955H128.9V14.4939H122.4V17.3893H129.885V20.0877H119.406V6.30005Z" fill="white"/>
</g>
<defs>
<clipPath id="clip0_2085_52">
<rect width="129.786" height="26" fill="white"/>
</clipPath>
</defs>
</svg>
