<svg width="107" height="26" viewBox="0 0 107 26" fill="none" xmlns="http://www.w3.org/2000/svg">
<g clip-path="url(#clip0_2085_106)">
<path d="M29 1.47095H34.6094C38.649 1.47095 41.4193 3.91897 41.4193 7.67971C41.4193 11.4403 38.6503 13.8884 34.6094 13.8884H29V1.47221V1.47095ZM34.4681 11.529C36.9209 11.529 38.5258 10.0573 38.5258 7.67971C38.5258 5.30205 36.9209 3.83031 34.4681 3.83031H31.8572V11.529H34.4681Z" fill="white"/>
<path d="M44.6279 1.47168H47.4852V13.8878H44.6279V1.47168Z" fill="white"/>
<path d="M61.477 11.5468V13.8878H50.6807V12.0251L57.4543 3.81285H50.8207V1.47168H61.2112V3.33444L54.4544 11.5468H61.4756H61.477Z" fill="white"/>
<path d="M72.5046 11.2274H66.7707L65.6766 13.8878H62.748L68.2525 1.47168H71.0747L76.596 13.8878H73.5975L72.5033 11.2274H72.5046ZM71.605 9.04522L69.6473 4.29126L67.6898 9.04522H71.6062H71.605Z" fill="white"/>
<path d="M86.8091 13.8889L84.4277 10.4293H81.7986V13.8889H78.9414V1.47266H84.2864C87.5857 1.47266 89.6495 3.19333 89.6495 5.97768C89.6495 7.84043 88.7149 9.20658 87.1099 9.89744L89.879 13.8889H86.8091ZM84.1282 3.81383H81.7999V8.14164H84.1282C85.8745 8.14164 86.7573 7.32552 86.7573 5.97768C86.7573 4.62983 85.8757 3.81383 84.1282 3.81383Z" fill="white"/>
<path d="M104.204 13.8889L104.186 6.43916L100.552 12.5762H99.2645L95.6477 6.59818V13.8889H92.9668V1.47266H95.3301L99.9517 9.18828L104.503 1.47266H106.85L106.885 13.8889H104.204Z" fill="white"/>
<path d="M41.9852 18.1133V23.9168H41.2695V23.2596C40.9351 23.7286 40.4062 23.9631 39.7994 23.9631C38.5938 23.9631 37.7148 23.111 37.7148 21.8439C37.7148 20.5769 38.5938 19.7323 39.7994 19.7323C40.3828 19.7323 40.8961 19.9512 41.2384 20.397V18.1133H41.9852ZM41.2461 21.8439C41.2461 20.9601 40.6472 20.3892 39.8616 20.3892C39.076 20.3892 38.4693 20.9601 38.4693 21.8439C38.4693 22.7278 39.0683 23.3065 39.8616 23.3065C40.655 23.3065 41.2461 22.7278 41.2461 21.8439Z" fill="white"/>
<path d="M47.5767 22.0937H44.2322C44.3254 22.821 44.9088 23.306 45.7256 23.306C46.2078 23.306 46.6122 23.1418 46.9156 22.8055L47.3279 23.2904C46.9546 23.7279 46.3868 23.9635 45.7022 23.9635C44.3721 23.9635 43.4854 23.0792 43.4854 21.8434C43.4854 20.6076 44.3644 19.7317 45.5544 19.7317C46.7445 19.7317 47.5923 20.5921 47.5923 21.8669C47.5923 21.9294 47.5845 22.0233 47.5767 22.0937ZM44.2322 21.5541H46.8767C46.7989 20.8579 46.2778 20.3652 45.5544 20.3652C44.8311 20.3652 44.3099 20.8502 44.2322 21.5541Z" fill="white"/>
<path d="M48.5752 23.4776L48.8863 22.8836C49.2363 23.1339 49.7963 23.3138 50.333 23.3138C51.0253 23.3138 51.3131 23.1027 51.3131 22.7507C51.3131 21.8199 48.7074 22.6255 48.7074 20.9753C48.7074 20.2323 49.3685 19.7317 50.4264 19.7317C50.9631 19.7317 51.5698 19.8725 51.9276 20.1071L51.6087 20.7016C51.2353 20.459 50.8231 20.373 50.4186 20.373C49.7652 20.373 49.4463 20.6155 49.4463 20.944C49.4463 21.9216 52.0599 21.1239 52.0599 22.735C52.0599 23.486 51.3753 23.9635 50.2786 23.9635C49.5941 23.9635 48.9174 23.7521 48.5752 23.4776Z" fill="white"/>
<path d="M53.3242 18.4888C53.3242 18.2151 53.542 17.9961 53.8298 17.9961C54.1176 17.9961 54.3354 18.2073 54.3354 18.4733C54.3354 18.7548 54.1254 18.9737 53.8298 18.9737C53.5342 18.9737 53.3242 18.7626 53.3242 18.4888ZM53.4564 19.7716H54.2032V23.9163H53.4564V19.7716Z" fill="white"/>
<path d="M60.0377 19.7708V23.3529C60.0377 24.8154 59.2987 25.48 57.8986 25.48C57.1441 25.48 56.3819 25.2686 55.9307 24.8627L56.2885 24.2832C56.6696 24.6124 57.2686 24.8238 57.8753 24.8238C58.8476 24.8238 59.291 24.3694 59.291 23.4313V23.1027C58.9332 23.5323 58.3964 23.7437 57.8052 23.7437C56.6151 23.7437 55.7129 22.9306 55.7129 21.7339C55.7129 20.5373 56.6151 19.7317 57.8052 19.7317C58.4197 19.7317 58.9798 19.9585 59.3298 20.4121V19.7708H60.0377ZM59.3065 21.7339C59.3065 20.9283 58.7154 20.3887 57.8908 20.3887C57.0663 20.3887 56.4674 20.9283 56.4674 21.7339C56.4674 22.5395 57.0585 23.087 57.8908 23.087C58.7231 23.087 59.3065 22.5317 59.3065 21.7339Z" fill="white"/>
<path d="M65.8402 21.5306V23.9162H65.0934V21.6166C65.0934 20.8031 64.6891 20.4043 63.9812 20.4043C63.1878 20.4043 62.6744 20.8814 62.6744 21.7808V23.9162H61.9277V19.7708H62.6433V20.3965C62.9467 19.9741 63.4756 19.7317 64.1289 19.7317C65.1323 19.7317 65.8402 20.3104 65.8402 21.5306Z" fill="white"/>
<path d="M70.1182 18.4888C70.1182 18.2151 70.336 17.9961 70.6237 17.9961C70.9116 17.9961 71.1294 18.2073 71.1294 18.4733C71.1294 18.7548 70.9193 18.9737 70.6237 18.9737C70.3282 18.9737 70.1182 18.7626 70.1182 18.4888ZM70.2504 19.7716H70.9971V23.9163H70.2504V19.7716Z" fill="white"/>
<path d="M72.3652 23.4776L72.6763 22.8836C73.0263 23.1339 73.5864 23.3138 74.1231 23.3138C74.8154 23.3138 75.1032 23.1027 75.1032 22.7507C75.1032 21.8199 72.4974 22.6255 72.4974 20.9753C72.4974 20.2323 73.1586 19.7317 74.2164 19.7317C74.7531 19.7317 75.3598 19.8725 75.7176 20.1071L75.3987 20.7016C75.0254 20.459 74.6131 20.373 74.2086 20.373C73.5552 20.373 73.2364 20.6155 73.2364 20.944C73.2364 21.9216 75.8499 21.1239 75.8499 22.735C75.8499 23.486 75.1654 23.9635 74.0687 23.9635C73.3841 23.9635 72.7075 23.7521 72.3652 23.4776Z" fill="white"/>
<path d="M83.7201 21.5311V23.9168H82.9734V21.6171C82.9734 20.8037 82.5689 20.4048 81.861 20.4048C81.0676 20.4048 80.5543 20.882 80.5543 21.7814V23.9168H79.8076V18.1133H80.5543V20.3579C80.8655 19.959 81.3788 19.7323 82.0089 19.7323C83.0122 19.7323 83.7201 20.311 83.7201 21.5311Z" fill="white"/>
<path d="M89.3072 22.0937H85.9626C86.0559 22.821 86.6393 23.306 87.456 23.306C87.9382 23.306 88.3427 23.1418 88.6461 22.8055L89.0584 23.2904C88.685 23.7279 88.1171 23.9635 87.4327 23.9635C86.1026 23.9635 85.2158 23.0792 85.2158 21.8434C85.2158 20.6076 86.0948 19.7317 87.2849 19.7317C88.475 19.7317 89.3228 20.5921 89.3228 21.8669C89.3228 21.9294 89.315 22.0233 89.3072 22.0937ZM85.9626 21.5541H88.6072C88.5294 20.8579 88.0083 20.3652 87.2849 20.3652C86.5616 20.3652 86.0403 20.8502 85.9626 21.5541Z" fill="white"/>
<path d="M93.039 19.7317V20.459C92.9769 20.4513 92.9224 20.4513 92.8679 20.4513C92.0667 20.4513 91.569 20.944 91.569 21.8513V23.9162H90.8223V19.7708H91.5378V20.4669C91.8023 19.982 92.3157 19.7317 93.039 19.7317Z" fill="white"/>
<path d="M98.0991 22.0937H94.7545C94.8478 22.821 95.4312 23.306 96.2479 23.306C96.7302 23.306 97.1346 23.1418 97.438 22.8055L97.8503 23.2904C97.4769 23.7279 96.9091 23.9635 96.2246 23.9635C94.8945 23.9635 94.0078 23.0792 94.0078 21.8434C94.0078 20.6076 94.8867 19.7317 96.0768 19.7317C97.2669 19.7317 98.1147 20.5921 98.1147 21.8669C98.1147 21.9294 98.1069 22.0233 98.0991 22.0937ZM94.7545 21.5541H97.3991C97.3213 20.8579 96.8002 20.3652 96.0768 20.3652C95.3535 20.3652 94.8322 20.8502 94.7545 21.5541Z" fill="white"/>
<path d="M0 1V24.9817H23.8616V1H0ZM0.795004 12.1015C0.810505 12.1159 0.82601 12.1307 0.841114 12.1459C1.06848 12.3741 1.1933 12.6743 1.1933 12.9909C1.1933 13.3074 1.06848 13.6076 0.841114 13.8358C0.82601 13.851 0.810505 13.8658 0.795004 13.8802V12.1015ZM0.795004 14.8207C1.495 14.5101 1.9883 13.8038 1.9883 12.9909C1.9883 12.1779 1.495 11.4716 0.795004 11.161V9.89521C1.336 10.0371 1.83447 10.3237 2.24469 10.7354C2.84889 11.3429 3.182 12.1439 3.182 12.9909C3.182 13.8378 2.84889 14.6388 2.24469 15.2463C1.83447 15.658 1.336 15.9446 0.795004 16.0865V14.8207ZM0.795004 16.9063C2.60125 16.5322 3.977 14.9102 3.977 12.9909C3.977 11.0715 2.60125 9.44955 0.795004 9.07545V7.85679C1.86587 8.02463 2.85843 8.53147 3.64789 9.32527C4.62969 10.3117 5.17032 11.6139 5.17032 12.9909C5.17032 14.3678 4.62969 15.6696 3.64789 16.6565C2.85843 17.4499 1.86587 17.9571 0.795004 18.125V16.9063ZM0.795004 18.9323C3.69755 18.537 5.96531 16.0094 5.96531 12.9909C5.96531 9.97237 3.69755 7.4447 0.795004 7.04938V5.84072C1.47433 5.91746 2.13657 6.0925 2.77218 6.3647C3.62402 6.72965 4.3908 7.25083 5.05106 7.91474C5.71168 8.57861 6.23045 9.34923 6.59336 10.205C6.96859 11.0903 7.15901 12.0276 7.15901 12.9909C7.15901 13.9541 6.96859 14.891 6.59336 15.7764C6.23045 16.6325 5.71168 17.4031 5.05106 18.067C4.3908 18.7309 3.62402 19.2521 2.77218 19.617C2.13657 19.8888 1.47433 20.0643 0.795004 20.141V18.9323ZM0.795004 20.9444C4.79109 20.5383 7.954 17.1069 7.954 12.9909C7.954 8.8748 4.79109 5.44343 0.795004 5.03734V3.83264C1.74066 3.91538 2.66207 4.1472 3.54292 4.52451C4.6313 4.99016 5.61072 5.65645 6.45463 6.50459C7.29813 7.35234 7.96078 8.33682 8.42465 9.43036C8.90404 10.5619 9.14732 11.7598 9.14732 12.9909C9.14732 14.2219 8.91278 15.3755 8.45087 16.4886C8.44213 16.5094 8.43339 16.5306 8.42465 16.5514C8.02237 17.4998 7.47023 18.3664 6.78017 19.133C6.67485 19.2501 6.56634 19.3648 6.45463 19.4771C5.61072 20.3253 4.6313 20.9912 3.54292 21.4572C3.52225 21.466 3.50158 21.4748 3.48091 21.4832C2.61874 21.8453 1.7184 22.0679 0.795004 22.1491V20.9444ZM0.3975 24.582V24.5752C0.399887 24.5752 0.402273 24.5752 0.404656 24.5748L0.3975 24.582ZM0.82601 24.1515L0.7954 24.1823H0.795004V22.9513C1.28989 22.9109 1.77524 22.8337 2.24827 22.7219C2.83101 22.5847 3.39426 22.3949 3.93366 22.1583C5.46406 21.4876 6.79887 20.4388 7.81924 19.133C8.01998 18.8764 8.2084 18.6094 8.3837 18.3336C8.66435 17.8927 8.91159 17.4283 9.12145 16.9446C9.3568 16.4027 9.5456 15.8363 9.68233 15.2507L9.68275 15.2503C9.85247 14.5233 9.94231 13.7667 9.94231 12.9909C9.94231 7.77762 5.88343 3.44334 0.795004 3.03045V1.82777C2.00738 1.9149 3.18756 2.20188 4.31408 2.68391C5.63855 3.25108 6.83105 4.06207 7.85781 5.09409C8.88457 6.1261 9.69149 7.32438 10.2555 8.65575C10.8399 10.0335 11.1356 11.492 11.1356 12.9909C11.1356 13.2691 11.1253 13.5456 11.1054 13.8206H11.105C11.0724 14.2607 11.014 14.6967 10.9297 15.1272C10.783 15.8783 10.558 16.6129 10.2555 17.326C10.1096 17.6709 9.94708 18.007 9.76821 18.3336C9.61913 18.607 9.45896 18.8736 9.28763 19.133C8.87341 19.7605 8.39563 20.3469 7.85781 20.8877C6.83105 21.9197 5.63855 22.7306 4.31408 23.2978C3.60416 23.6016 2.87314 23.8278 2.12584 23.9753C1.69773 24.06 1.26405 24.1188 0.82601 24.1515ZM17.2357 24.1823H4.25962C6.75634 23.2111 8.85793 21.4144 10.2265 19.133H17.2357V24.1823ZM17.238 18.3336H10.6662C11.305 17.0593 11.7239 15.6576 11.8714 14.1811L17.2357 8.78967L17.238 8.78767V18.3336ZM19.2502 24.1823H18.0307V7.99068L18.033 7.98826L19.2502 6.7648V24.1823ZM21.0791 24.1823H20.0452V5.9658L21.0791 4.92702V24.1823ZM20.0452 4.83589L19.2502 5.63488L18.033 6.85835L17.2357 7.65972L11.9306 12.9912C11.9306 7.91754 8.72713 3.53767 4.25962 1.79939H23.0662L21.8741 2.99768L21.0791 3.79667L20.0452 4.83589ZM23.0666 24.1823H21.8741V4.12802L23.0666 2.92933V24.1823Z" fill="white"/>
</g>
<defs>
<clipPath id="clip0_2085_106">
<rect width="107" height="26" fill="white"/>
</clipPath>
</defs>
</svg>
