<svg width="99" height="26" viewBox="0 0 99 26" fill="none" xmlns="http://www.w3.org/2000/svg">
<g clip-path="url(#clip0_2085_93)">
<g clip-path="url(#clip1_2085_93)">
<path fill-rule="evenodd" clip-rule="evenodd" d="M89.8907 20.4949C92.1144 20.4949 93.77 18.8989 93.77 16.6155C93.77 14.3321 92.1144 12.7361 89.8907 12.7361C87.6669 12.7361 86.0113 14.3321 86.0113 16.6155C86.0113 18.8989 87.6669 20.4949 89.8907 20.4949ZM89.8907 25.3721C94.7267 25.3721 98.6473 21.6733 98.6473 16.6163C98.6473 11.5577 94.7267 7.85962 89.8907 7.85962C85.0547 7.85962 81.1348 11.5577 81.1348 16.6155C81.1348 21.6733 85.0547 25.3721 89.8907 25.3721Z" fill="white"/>
<path fill-rule="evenodd" clip-rule="evenodd" d="M75.1936 13.0314C74.5048 12.746 73.7482 12.6651 73.0146 12.7985C72.281 12.9319 71.6014 13.2739 71.0571 13.7835C70.5128 14.2932 70.127 14.9489 69.9457 15.6721C69.7644 16.3954 69.7954 17.1556 70.035 17.8617C70.2746 18.5678 70.7126 19.1899 71.2965 19.6535C71.8805 20.1172 72.5857 20.4027 73.3277 20.4759C74.0698 20.5491 74.8172 20.4069 75.4805 20.0664C76.1438 19.7258 76.6949 19.2013 77.0679 18.5556L81.2921 20.9943C80.328 22.6632 78.8403 23.9676 77.0596 24.7052C75.2789 25.4428 73.3046 25.5724 71.4427 25.074C70.052 24.7011 68.7747 23.9911 67.7239 23.0068C66.6732 22.0224 65.8814 20.7942 65.4186 19.4307C64.9559 18.0673 64.8365 16.6108 65.0711 15.1902C65.3057 13.7697 65.8869 12.4289 66.7634 11.2866C67.6399 10.1443 68.7845 9.23577 70.096 8.64148C71.4074 8.0472 72.8452 7.78549 74.2819 7.87954C75.7187 7.97359 77.11 8.42049 78.3328 9.18066C79.5556 9.94083 80.572 10.9908 81.2921 12.2376L77.0679 14.6763C76.641 13.9367 75.9819 13.3587 75.1928 13.0321L75.1936 13.0314Z" fill="white"/>
<path d="M50.2382 8.30246H45.4434V18.7216C45.4434 22.5344 47.5617 25.1505 51.5764 25.1505C55.2546 25.1505 56.927 23.1546 59.0453 16.3946L59.8528 24.9287H64.5083L62.6142 8.30322H56.9278L53.583 18.7216C52.8703 21.1602 50.2382 20.8276 50.2382 18.278V8.30246ZM27.2656 0.322754H32.1429V24.9287H27.2656V0.322754Z" fill="white"/>
<path fill-rule="evenodd" clip-rule="evenodd" d="M36.0223 24.9287C40.6136 24.9287 44.3347 21.4172 44.3347 16.6164C44.3347 11.814 40.6136 8.30249 36.0223 8.30249C31.431 8.30249 27.71 11.814 27.71 16.6156C27.71 21.418 31.431 24.9287 36.0223 24.9287ZM36.0223 20.495C38.3868 20.495 39.9017 18.8562 39.9017 16.6156C39.9017 14.375 38.3868 12.7363 36.0223 12.7363C33.6578 12.7363 32.143 14.375 32.143 16.6156C32.143 18.8562 33.6578 20.495 36.0223 20.495Z" fill="white"/>
<path d="M11.4453 24.9293H6.65137V14.5087C6.65137 10.6959 8.7696 8.08057 12.7835 8.08057C16.4618 8.08057 18.135 10.0757 20.2532 16.8364L21.0607 8.30233H25.7162L23.8205 24.9278H18.135L14.7901 14.5094C14.0782 12.0716 11.4453 12.4034 11.4453 14.953V24.9293Z" fill="white"/>
<path d="M0 8.08154H4.87729V12.9581H0V8.08154ZM0 14.0669H4.87729V18.9434H0V14.0669ZM0 20.0522H4.87729V24.9288H0V20.0522Z" fill="#29A7FC"/>
</g>
</g>
<defs>
<clipPath id="clip0_2085_93">
<rect width="98.6471" height="26" fill="white"/>
</clipPath>
<clipPath id="clip1_2085_93">
<rect width="98.6471" height="26" fill="white"/>
</clipPath>
</defs>
</svg>
