<svg width="149" height="26" viewBox="0 0 149 26" fill="none" xmlns="http://www.w3.org/2000/svg">
<g clip-path="url(#clip0_2085_145)">
<path d="M39.6611 4.00757V18.2001H37.3887V4.00757H39.6611ZM45.158 18.4393C43.9886 18.4393 43.0783 18.0872 42.4271 17.3828C41.7893 16.6785 41.4703 15.642 41.4703 14.2732V8.07397H43.7427V14.0739C43.7427 15.7616 44.4271 16.6054 45.7959 16.6054C46.4736 16.6054 47.0251 16.353 47.4503 15.848C47.8889 15.343 48.1081 14.6254 48.1081 13.6952V8.07397H50.3805V18.2001H48.2277V16.8845H48.1879C47.4703 17.921 46.4603 18.4393 45.158 18.4393ZM57.5145 7.83477C58.6839 7.83477 59.5876 8.18692 60.2254 8.89123C60.8766 9.59557 61.2022 10.6321 61.2022 12.0008V18.2001H58.9298V12.2002C58.9298 10.5125 58.2454 9.66864 56.8766 9.66864C56.1989 9.66864 55.6408 9.92109 55.2022 10.4261C54.777 10.9311 54.5644 11.6487 54.5644 12.5789V18.2001H52.292V8.07397H54.4448V9.38957H54.4846C55.2022 8.35303 56.2122 7.83477 57.5145 7.83477ZM66.8013 7.77497C68.1567 7.77497 69.1866 8.10719 69.8909 8.77164C70.6085 9.43611 70.9673 10.4261 70.9673 11.7417V15.529C70.9673 16.6187 71.0536 17.5091 71.2265 18.2001H69.1733C69.0802 17.7882 69.0338 17.3164 69.0338 16.7848H68.9939C68.2497 17.8745 67.1135 18.4194 65.5853 18.4194C64.5488 18.4194 63.7182 18.1403 63.0937 17.5822C62.4691 17.0108 62.1568 16.2865 62.1568 15.4094C62.1568 14.5456 62.4491 13.8546 63.0339 13.3364C63.6319 12.8181 64.6351 12.446 66.0438 12.2201C66.8943 12.0739 67.8045 11.9742 68.7747 11.9211V11.5224C68.7747 10.1271 68.1169 9.42944 66.8013 9.42944C66.1899 9.42944 65.7115 9.5889 65.3661 9.90784C65.0205 10.2268 64.8344 10.6586 64.8079 11.2035H62.5754C62.6285 10.1936 63.0139 9.36963 63.7315 8.73177C64.4624 8.0939 65.4857 7.77497 66.8013 7.77497ZM68.7747 13.8945V13.3962C67.9109 13.4493 67.1335 13.5357 66.4425 13.6553C65.7115 13.7749 65.1932 13.9543 64.8877 14.1935C64.5952 14.4327 64.4491 14.7848 64.4491 15.25C64.4491 15.7018 64.6019 16.0672 64.9076 16.3463C65.2265 16.6121 65.6716 16.745 66.2431 16.745C67.0139 16.745 67.6251 16.519 68.077 16.0672C68.3427 15.7882 68.5221 15.4958 68.6152 15.1902C68.7214 14.8712 68.7747 14.4394 68.7747 13.8945ZM77.8057 7.93443C78.0715 7.93443 78.3505 7.96765 78.6429 8.0341V10.0474C78.3904 9.99424 78.1246 9.96764 77.8455 9.96764C76.942 9.96764 76.2443 10.2534 75.7525 10.8248C75.2741 11.3829 75.0349 12.1869 75.0349 13.2367V18.2001H72.7625V8.07397H74.8755V9.56897H74.9153C75.5931 8.47928 76.5565 7.93443 77.8057 7.93443ZM86.3655 7.77497C87.6675 7.77497 88.6711 8.07397 89.3757 8.67197C90.0933 9.25671 90.4581 10.1072 90.472 11.2234H88.2793C88.2793 10.0274 87.6345 9.42944 86.3455 9.42944C85.814 9.42944 85.4021 9.53578 85.1097 9.74837C84.8174 9.96096 84.6711 10.2534 84.6711 10.6254C84.6711 11.0241 84.824 11.3098 85.1296 11.4826C85.4353 11.6553 86.0465 11.8546 86.9635 12.0806C87.3355 12.1736 87.5678 12.2334 87.6614 12.26C87.7671 12.2866 87.9864 12.353 88.3192 12.4593C88.6641 12.5523 88.8903 12.6387 88.9969 12.7184C89.1165 12.7849 89.302 12.8846 89.5551 13.0174C89.8073 13.1503 89.9797 13.2898 90.0733 13.436C90.1791 13.5689 90.2987 13.735 90.4321 13.9344C90.5777 14.1337 90.6713 14.3596 90.7112 14.6121C90.7641 14.8513 90.7909 15.1171 90.7909 15.4094C90.7909 16.3396 90.4053 17.0905 89.6348 17.6619C88.8635 18.22 87.8339 18.4991 86.5449 18.4991C85.1629 18.4991 84.0865 18.1934 83.3157 17.5822C82.5582 16.9576 82.1729 16.054 82.1595 14.8712H84.4718C84.4718 15.4958 84.6512 15.9742 85.01 16.3064C85.3822 16.6386 85.907 16.8048 86.5847 16.8048C87.1561 16.8048 87.6016 16.6918 87.9205 16.4659C88.2525 16.24 88.4189 15.9344 88.4189 15.549C88.4189 15.0706 88.2455 14.7384 87.9006 14.5523C87.5548 14.353 86.8772 14.127 85.8671 13.8746C85.4951 13.7816 85.2426 13.7218 85.1097 13.6952C84.9901 13.6553 84.7708 13.5888 84.4519 13.4958C84.1329 13.3895 83.9071 13.2965 83.7741 13.2168C83.6413 13.1238 83.4619 12.9975 83.2359 12.838C83.0233 12.6786 82.8706 12.5124 82.7775 12.3397C82.6845 12.1536 82.5981 11.9344 82.5183 11.6819C82.4386 11.4161 82.3987 11.1238 82.3987 10.8048C82.3987 9.90116 82.7642 9.1703 83.4951 8.61217C84.226 8.05404 85.1828 7.77497 86.3655 7.77497ZM96.0889 16.4659C96.3809 16.4659 96.6141 16.4327 96.7865 16.3662V18.1403C96.3749 18.2599 95.9493 18.3197 95.5108 18.3197C94.4344 18.3197 93.6501 18.0805 93.1587 17.6021C92.6803 17.1104 92.4411 16.3131 92.4411 15.2101V9.80817H90.7467V8.07397H92.4411V5.54243H94.7135V8.07397H96.6869V9.80817H94.7135V14.8712C94.7135 15.4426 94.8201 15.8546 95.0324 16.1071C95.2447 16.3463 95.5975 16.4659 96.0889 16.4659ZM102.824 7.93443C103.089 7.93443 103.368 7.96765 103.661 8.0341V10.0474C103.408 9.99424 103.143 9.96764 102.864 9.96764C101.96 9.96764 101.262 10.2534 100.771 10.8248C100.292 11.3829 100.053 12.1869 100.053 13.2367V18.2001H97.7806V8.07397H99.8935V9.56897H99.9334C100.611 8.47928 101.574 7.93443 102.824 7.93443ZM107.696 7.77497C109.052 7.77497 110.081 8.10719 110.786 8.77164C111.503 9.43611 111.862 10.4261 111.862 11.7417V15.529C111.862 16.6187 111.948 17.5091 112.121 18.2001H110.068C109.975 17.7882 109.929 17.3164 109.929 16.7848H109.889C109.144 17.8745 108.008 18.4194 106.48 18.4194C105.444 18.4194 104.613 18.1403 103.989 17.5822C103.364 17.0108 103.052 16.2865 103.052 15.4094C103.052 14.5456 103.344 13.8546 103.929 13.3364C104.527 12.8181 105.529 12.446 106.939 12.2201C107.789 12.0739 108.699 11.9742 109.67 11.9211V11.5224C109.67 10.1271 109.012 9.42944 107.696 9.42944C107.084 9.42944 106.606 9.5889 106.261 9.90784C105.915 10.2268 105.729 10.6586 105.703 11.2035H103.47C103.523 10.1936 103.909 9.36963 104.626 8.73177C105.357 8.0939 106.381 7.77497 107.696 7.77497ZM109.67 13.8945V13.3962C108.805 13.4493 108.028 13.5357 107.337 13.6553C106.606 13.7749 106.088 13.9543 105.783 14.1935C105.49 14.4327 105.344 14.7848 105.344 15.25C105.344 15.7018 105.497 16.0672 105.802 16.3463C106.121 16.6121 106.566 16.745 107.138 16.745C107.908 16.745 108.519 16.519 108.972 16.0672C109.237 15.7882 109.416 15.4958 109.51 15.1902C109.616 14.8712 109.67 14.4394 109.67 13.8945ZM117.528 16.4659C117.821 16.4659 118.054 16.4327 118.226 16.3662V18.1403C117.814 18.2599 117.389 18.3197 116.95 18.3197C115.874 18.3197 115.091 18.0805 114.598 17.6021C114.12 17.1104 113.881 16.3131 113.881 15.2101V9.80817H112.186V8.07397H113.881V5.54243H116.153V8.07397H118.126V9.80817H116.153V14.8712C116.153 15.4426 116.26 15.8546 116.472 16.1071C116.685 16.3463 117.037 16.4659 117.528 16.4659ZM123.115 16.8247C123.753 16.8247 124.271 16.6719 124.67 16.3662C125.081 16.0606 125.341 15.6553 125.447 15.1503H127.779C127.58 16.1071 127.069 16.9044 126.245 17.5423C125.42 18.1802 124.378 18.4991 123.115 18.4991C121.587 18.4991 120.384 18.0008 119.507 17.0041C118.643 16.0074 118.211 14.6786 118.211 13.0174C118.211 11.4892 118.643 10.2334 119.507 9.25004C120.384 8.26665 121.573 7.77497 123.075 7.77497C124.218 7.77497 125.188 8.08725 125.985 8.71184C126.796 9.3231 127.341 10.1603 127.62 11.2234C127.806 11.8214 127.899 12.6121 127.899 13.5955H120.464C120.504 14.6852 120.763 15.4958 121.241 16.0274C121.733 16.5589 122.358 16.8247 123.115 16.8247ZM124.809 10.1271C124.358 9.67531 123.78 9.44937 123.075 9.44937C122.371 9.44937 121.786 9.67531 121.321 10.1271C120.869 10.5789 120.596 11.2367 120.504 12.1005H125.627C125.547 11.2367 125.275 10.5789 124.809 10.1271ZM132.849 7.7949C134.071 7.7949 135.054 8.35968 135.799 9.48924H135.839V8.07397H137.991V17.5622C137.991 19.0506 137.586 20.1668 136.775 20.911C135.978 21.6685 134.848 22.0472 133.387 22.0472C132.044 22.0472 130.995 21.7615 130.237 21.1901C129.493 20.632 129.094 19.8479 129.041 18.838H131.314C131.34 19.3296 131.539 19.7084 131.912 19.9742C132.283 20.24 132.789 20.3728 133.427 20.3728C134.21 20.3728 134.795 20.1469 135.181 19.6951C135.579 19.2433 135.779 18.5058 135.779 17.4825V16.4858H135.739C135.007 17.549 134.031 18.0805 132.809 18.0805C131.519 18.0805 130.496 17.6154 129.739 16.6852C128.981 15.755 128.603 14.5058 128.603 12.9377C128.603 11.3696 128.988 10.1204 129.759 9.19024C130.529 8.26002 131.559 7.7949 132.849 7.7949ZM133.367 9.68857C132.635 9.68857 132.051 9.98089 131.613 10.5656C131.187 11.1504 130.975 11.941 130.975 12.9377C130.975 13.9344 131.187 14.7317 131.613 15.3297C132.051 15.9144 132.635 16.2068 133.367 16.2068C134.137 16.2068 134.742 15.9144 135.181 15.3297C135.632 14.7317 135.858 13.9344 135.858 12.9377C135.858 11.941 135.632 11.1504 135.181 10.5656C134.742 9.98089 134.137 9.68857 133.367 9.68857ZM145.653 8.07397H148.005L144.098 18.6386C143.619 19.9144 143.055 20.7914 142.404 21.2698C141.766 21.7482 140.856 21.9874 139.673 21.9874C139.261 21.9874 138.882 21.9409 138.536 21.8479V19.9941C138.842 20.0871 139.161 20.1336 139.493 20.1336C140.105 20.1336 140.57 20.0008 140.889 19.735C141.221 19.4692 141.507 18.9842 141.746 18.2798L138.038 8.07397H140.47L143.002 15.6088H143.041L145.653 8.07397Z" fill="#F5F5F5"/>
<path d="M9.06641 8.91272C9.06641 8.77622 9.17713 8.66553 9.31363 8.66553H17.7332V17.0851C17.7332 17.2216 17.6225 17.3323 17.486 17.3323H9.06641V8.91272Z" fill="#F5F5F5"/>
<path d="M0.400391 17.5804C0.400391 17.4439 0.51107 17.3333 0.647598 17.3333H9.06717V25.7527C9.06717 25.8893 8.95648 26 8.81994 26H0.647598C0.51107 26 0.400391 25.8893 0.400391 25.7527V17.5804Z" fill="#F5F5F5"/>
<path d="M17.7334 0.247208C17.7334 0.110679 17.8441 0 17.9807 0H26.153C26.2895 0 26.4002 0.110679 26.4002 0.247208V8.41955C26.4002 8.55609 26.2895 8.66675 26.153 8.66675H17.7334V0.247208Z" fill="#F5F5F5"/>
<path d="M9.56077 17.3331C9.17684 17.3329 9.065 17.4375 9.06556 17.8283L8.57031 17.3331C8.95132 17.3333 9.06523 17.2301 9.06556 16.8379L9.56077 17.3331Z" fill="#F5F5F5"/>
<path d="M18.2278 8.66638C17.8439 8.66617 17.732 8.77088 17.7326 9.16166L17.2373 8.66638C17.6183 8.6666 17.7323 8.56342 17.7326 8.17114L18.2278 8.66638Z" fill="#F5F5F5"/>
</g>
<defs>
<clipPath id="clip0_2085_145">
<rect width="148.2" height="26" fill="white" transform="translate(0.400391)"/>
</clipPath>
</defs>
</svg>
