<svg width="97" height="26" viewBox="0 0 97 26" fill="none" xmlns="http://www.w3.org/2000/svg">
<g clip-path="url(#clip0_2085_135)">
<path d="M13.3396 23.2935V18.9608C13.3972 18.9244 13.4682 18.8754 13.5421 18.8323C14.5648 18.2403 15.5856 17.6455 16.6131 17.0612C16.7724 16.971 16.8376 16.8693 16.8376 16.6861C16.8328 14.2587 16.8328 11.8324 16.8376 9.40509C16.8376 9.25734 16.7868 9.17387 16.6611 9.10096C15.2421 8.28546 13.8261 7.46421 12.408 6.64679C12.3505 6.61321 12.2833 6.59498 12.1864 6.55565V25.9108C12.0886 25.8676 12.0252 25.8455 11.9686 25.8129C9.8445 24.5897 7.72037 23.3664 5.5972 22.1413C3.81269 21.1118 2.03107 20.0785 0.242731 19.0558C0.0661992 18.9551 0.00383756 18.8447 0.00479697 18.6432C0.00959402 14.8593 0.00863469 11.0745 0 7.29055C0 7.07756 0.0671585 6.96723 0.249446 6.86266C2.50118 5.57321 4.74812 4.27417 6.99601 2.97801C7.06989 2.93579 7.14568 2.8955 7.2541 2.83697C7.26369 2.94923 7.27616 3.02502 7.27616 3.10177C7.27808 4.39506 7.27616 5.68834 7.28288 6.98162C7.28288 7.13321 7.22435 7.20709 7.10059 7.27808C6.08841 7.85661 5.08103 8.44185 4.07173 9.02517C3.98251 9.07697 3.89328 9.1307 3.78679 9.19306C3.78679 9.26982 3.78679 9.34849 3.78679 9.42716C3.78391 11.7422 3.78103 14.0573 3.77911 16.3723C3.77911 16.3886 3.78103 16.4049 3.77911 16.4203C3.74841 16.6342 3.83476 16.7647 4.02856 16.8741C4.77882 17.2991 5.51756 17.7452 6.26303 18.1779C6.87705 18.5348 7.49587 18.886 8.11277 19.2371C8.19336 19.2832 8.27875 19.3187 8.40731 19.381V4.32982C8.40731 3.61889 8.40731 2.90893 8.40731 2.19801C8.40731 1.48229 8.40635 0.767528 8.40827 0C8.53011 0.0623616 8.60495 0.0978579 8.6769 0.139112C10.8845 1.41033 13.0911 2.68155 15.2978 3.95277C16.9854 4.92561 18.672 5.90037 20.3644 6.86649C20.54 6.96627 20.6062 7.07661 20.6062 7.27904C20.6033 11.1109 20.6072 14.9438 20.61 18.7756C20.61 18.8073 20.6062 18.8399 20.61 18.8716C20.634 19.0472 20.5486 19.1441 20.3999 19.2294C19.311 19.8502 18.2259 20.4786 17.1408 21.1051C15.9655 21.7834 14.7893 22.4617 13.614 23.14C13.5392 23.1832 13.4634 23.2235 13.3406 23.2916L13.3396 23.2935Z" fill="white"/>
<path d="M62.4854 11.1589V8.85347C62.5544 8.84867 62.6235 8.84004 62.6916 8.84004C65.8078 8.84004 68.9239 8.84004 72.0411 8.83716C72.2013 8.83716 72.3327 8.87553 72.4546 8.98491C72.751 9.25162 73.0638 9.50107 73.3574 9.77159C73.6366 10.0297 73.8438 10.3463 73.9589 10.7099C74.0213 10.9047 74.0683 11.1128 74.0702 11.3153C74.0827 12.5443 74.0808 13.7733 74.0846 15.0023C74.0846 15.2652 74.1057 15.5281 74.0942 15.79C74.0789 16.1248 73.9503 16.4261 73.7632 16.7014C73.4955 17.0948 73.1674 17.4306 72.7798 17.7069C72.3299 18.0283 71.8242 18.1827 71.2735 18.176C70.459 18.1664 69.6435 18.1376 68.829 18.1367C66.8152 18.1338 64.8014 18.1434 62.7885 18.1472C62.6935 18.1472 62.5995 18.1472 62.4882 18.1472V12.5299C63.2375 12.5117 63.9897 12.5251 64.7678 12.5213V15.7909C64.9482 15.8034 65.1055 15.8226 65.2628 15.8226C67.0924 15.8245 68.923 15.8245 70.7526 15.8226C70.8476 15.8226 70.9445 15.812 71.0385 15.7957C71.476 15.719 71.7062 15.4609 71.7379 15.0148C71.7427 14.9428 71.7437 14.8709 71.7437 14.7999C71.7437 13.8817 71.7369 12.9636 71.7484 12.0454C71.7513 11.795 71.6554 11.6415 71.4434 11.5292C71.0558 11.3239 70.6423 11.2088 70.2076 11.1848C69.8575 11.1656 69.5054 11.1675 69.1532 11.1675C67.0042 11.1675 64.8541 11.1695 62.7051 11.1695C62.635 11.1695 62.565 11.1608 62.4854 11.156V11.1589Z" fill="white"/>
<path d="M48.1318 8.85628C48.2335 8.85053 48.3036 8.84381 48.3736 8.84381C49.2044 8.84381 50.0353 8.85341 50.8661 8.84381C51.1444 8.84093 51.3526 8.93975 51.5444 9.13259C53.3337 10.9343 55.1278 12.7332 56.92 14.5321C57.1061 14.7192 57.2894 14.9082 57.4793 15.0915C57.5561 15.1653 57.6472 15.2258 57.772 15.3236V8.92056C57.9667 8.86492 59.6121 8.84669 60.0563 8.88986C60.1091 9.05488 60.1302 17.7788 60.0765 18.1779C60.0448 18.1846 60.0074 18.1999 59.9709 18.1999C59.3636 18.1971 58.7563 18.198 58.149 18.1875C57.2452 18.1712 56.4902 17.8152 55.8829 17.1551C54.4006 15.5443 52.8128 14.0371 51.2624 12.4924C51.106 12.337 50.9333 12.1998 50.7203 12.0118V18.104H48.3746C48.293 15.0214 48.2124 11.9465 48.1309 8.8582L48.1318 8.85628Z" fill="white"/>
<path d="M29.1562 8.86592C29.2234 8.8592 29.2704 8.84961 29.3174 8.84961C30.0447 8.85057 30.7719 8.85729 31.4991 8.85249C31.6977 8.85153 31.8464 8.92061 31.9846 9.06068C32.8999 9.98649 33.8209 10.9066 34.74 11.8286C34.8072 11.8967 34.8734 11.9667 34.9482 12.0262C35.095 12.1432 35.2082 12.1404 35.3569 12.0195C35.4183 11.9696 35.473 11.9101 35.5296 11.8535C36.4362 10.9536 37.3448 10.0546 38.2495 9.15278C38.4213 8.98201 38.6218 8.86784 38.8626 8.86496C39.5083 8.85729 40.1549 8.86208 40.8006 8.86208C40.8534 9.02998 40.8754 17.6531 40.8246 18.0925C40.6519 18.1396 39.0324 18.1568 38.5527 18.1127C38.5431 17.8095 38.5498 17.5015 38.5489 17.1945C38.5479 16.8751 38.5489 16.5556 38.5489 16.2361V12.4435C38.4644 12.5107 38.4146 12.5452 38.3714 12.5865C37.8379 13.1036 37.2988 13.615 36.7768 14.1427C36.5427 14.3796 36.2856 14.5063 35.9489 14.4967C35.5018 14.4842 35.0537 14.4948 34.6067 14.4871C34.432 14.4842 34.2555 14.4689 34.0828 14.441C33.7998 14.3959 33.5561 14.2722 33.3556 14.0582C32.069 12.692 30.7805 11.3277 29.4901 9.96538C29.3587 9.82627 29.2791 9.66797 29.2503 9.4809C29.2196 9.27847 29.1889 9.07507 29.1562 8.86304V8.86592Z" fill="white"/>
<path d="M84.0341 18.1186H81.4082C82.6746 15.0303 83.9315 11.964 85.1931 8.88623H89.2619C90.5293 11.9535 91.7986 15.0245 93.0785 18.1186H90.466C90.4343 18.0486 90.3969 17.9709 90.3633 17.8912C89.6371 16.1633 88.9089 14.4364 88.1855 12.7075C87.9898 12.2403 87.7326 11.8115 87.44 11.4008C87.4036 11.349 87.3652 11.2963 87.3182 11.254C87.1867 11.1341 87.0553 11.1466 86.9536 11.2924C86.9085 11.3567 86.8759 11.4315 86.8442 11.5044C85.9884 13.4808 85.1326 15.4572 84.2807 17.4346C84.1867 17.6533 84.1185 17.8836 84.0341 18.1186Z" fill="white"/>
<path d="M96.3589 8.87842V18.0753C96.1958 18.129 94.4288 18.1444 94.1064 18.0926V8.87842H96.3589Z" fill="white"/>
<path d="M45.7873 18.1081H43.5596V8.87671H45.7787C45.8257 9.0542 45.8372 17.8193 45.7873 18.1081Z" fill="white"/>
<path d="M31.6163 18.1252H29.2725V11.7019C29.4193 11.7489 29.5334 11.8305 29.6342 11.9312C30.1935 12.4896 30.748 13.0528 31.3131 13.6044C31.5952 13.8798 31.717 14.1964 31.7046 14.5907C31.6729 15.6192 31.6604 16.6486 31.6393 17.6771C31.6364 17.8201 31.6249 17.9621 31.6153 18.1261L31.6163 18.1252Z" fill="white"/>
</g>
<defs>
<clipPath id="clip0_2085_135">
<rect width="96.4207" height="26" fill="white"/>
</clipPath>
</defs>
</svg>
