<svg width="117" height="26" viewBox="0 0 117 26" fill="none" xmlns="http://www.w3.org/2000/svg">
<g clip-path="url(#clip0_2085_65)">
<path d="M36.3644 4.06045C35.9365 2.46144 34.6798 1.20485 33.0808 0.776818C30.1855 0.000244373 18.5705 0.000244141 18.5705 0.000244141C18.5705 0.000244141 6.95553 0.000244373 4.06019 0.776818C2.46119 1.20485 1.20461 2.46144 0.776574 4.06045C2.32458e-07 6.95578 0 13.0002 0 13.0002C0 13.0002 2.32458e-07 19.0447 0.776574 21.94C1.20461 23.539 2.46119 24.7956 4.06019 25.2236C6.95553 26.0002 18.5705 26.0002 18.5705 26.0002C18.5705 26.0002 30.1855 26.0002 33.0808 25.2236C34.6798 24.7956 35.9365 23.539 36.3644 21.94C37.1411 19.0447 37.1411 13.0002 37.1411 13.0002C37.1411 13.0002 37.1379 6.95578 36.3644 4.06045Z" fill="white"/>
<path d="M14.8535 18.5712L24.5026 13.0008L14.8535 7.43018V18.5712Z" fill="#171717"/>
<path d="M44.9828 16.9049L40.8125 1.84424H44.4508L45.9123 8.67136C46.2852 10.3529 46.5573 11.7868 46.7346 12.9731H46.8416C46.964 12.1231 47.2392 10.6984 47.6641 8.69582L49.1775 1.84424H52.8158L48.5935 16.9049V24.1295H44.9798V16.9049H44.9828Z" fill="white"/>
<path d="M53.91 23.6518C53.1763 23.1565 52.6534 22.386 52.3416 21.3404C52.0328 20.2948 51.877 18.9068 51.877 17.1702V14.8068C51.877 13.0549 52.0543 11.6455 52.4089 10.5846C52.7635 9.52369 53.317 8.74711 54.069 8.26099C54.8212 7.77487 55.8087 7.53027 57.0317 7.53027C58.2363 7.53027 59.1993 7.77792 59.9269 8.27322C60.6515 8.76851 61.1835 9.54509 61.5198 10.5968C61.8561 11.6516 62.0243 13.0549 62.0243 14.8068V17.1702C62.0243 18.9068 61.8592 20.301 61.5322 21.3526C61.205 22.4075 60.673 23.178 59.9391 23.664C59.2054 24.1502 58.2087 24.3948 56.9521 24.3948C55.6558 24.3978 54.6439 24.1471 53.91 23.6518ZM58.0253 21.102C58.227 20.5701 58.331 19.7048 58.331 18.5002V13.428C58.331 12.26 58.2302 11.404 58.0253 10.8659C57.8204 10.3247 57.4628 10.0557 56.949 10.0557C56.4539 10.0557 56.1022 10.3247 55.9004 10.8659C55.6956 11.407 55.5947 12.26 55.5947 13.428V18.5002C55.5947 19.7048 55.6924 20.573 55.8882 21.102C56.0839 21.634 56.4354 21.8999 56.949 21.8999C57.4628 21.8999 57.8204 21.634 58.0253 21.102Z" fill="white"/>
<path d="M73.8592 24.1326H70.9914L70.6734 22.1392H70.594C69.8142 23.6434 68.6463 24.3955 67.0871 24.3955C66.0079 24.3955 65.2099 24.0408 64.6963 23.3347C64.1827 22.6253 63.9258 21.5186 63.9258 20.0144V7.849H67.5916V19.8003C67.5916 20.528 67.6711 21.0446 67.8301 21.3535C67.9891 21.6622 68.255 21.8181 68.628 21.8181C68.946 21.8181 69.2517 21.7204 69.5453 21.5247C69.8388 21.3289 70.0528 21.0813 70.1964 20.7818V7.84595H73.8592V24.1326Z" fill="white"/>
<path d="M83.818 4.79399H80.1797V24.1319H76.5934V4.79399H72.9551V1.84668H83.818V4.79399Z" fill="white"/>
<path d="M92.659 24.1326H89.7912L89.4732 22.1392H89.3938C88.6142 23.6434 87.4463 24.3955 85.8869 24.3955C84.8077 24.3955 84.0097 24.0408 83.4961 23.3347C82.9825 22.6253 82.7256 21.5186 82.7256 20.0144V7.849H86.3914V19.8003C86.3914 20.528 86.4709 21.0446 86.6299 21.3535C86.7889 21.6622 87.0548 21.8181 87.4279 21.8181C87.7458 21.8181 88.0515 21.7204 88.3451 21.5247C88.6386 21.3289 88.8526 21.0813 88.9962 20.7818V7.84595H92.659V24.1326Z" fill="white"/>
<path d="M104.791 10.4504C104.568 9.42317 104.21 8.68022 103.715 8.21855C103.22 7.75689 102.538 7.52759 101.67 7.52759C100.997 7.52759 100.367 7.71714 99.7833 8.09931C99.1994 8.48149 98.7468 8.97984 98.4289 9.60049H98.4014V1.02148H94.8701V24.1291H97.8969L98.2699 22.5883H98.3494C98.6337 23.1385 99.0587 23.5696 99.6243 23.8907C100.19 24.2087 100.82 24.3677 101.511 24.3677C102.749 24.3677 103.663 23.796 104.247 22.6555C104.831 21.512 105.124 19.7296 105.124 17.3021V14.7247C105.124 12.9055 105.011 11.4777 104.791 10.4504ZM101.431 17.0941C101.431 18.2803 101.382 19.2098 101.284 19.8824C101.187 20.5551 101.025 21.0351 100.792 21.3163C100.563 21.6006 100.251 21.7413 99.8628 21.7413C99.5601 21.7413 99.2819 21.671 99.025 21.5273C98.7683 21.3867 98.5604 21.1727 98.4014 20.8914V11.6489C98.5236 11.2056 98.7377 10.8448 99.0404 10.5605C99.34 10.2762 99.6702 10.1355 100.022 10.1355C100.395 10.1355 100.682 10.2823 100.884 10.5727C101.089 10.8662 101.229 11.3554 101.309 12.0464C101.388 12.7374 101.428 13.7188 101.428 14.9937V17.0941H101.431Z" fill="white"/>
<path d="M110.325 18.0326C110.325 19.0782 110.356 19.8609 110.417 20.3838C110.478 20.9065 110.607 21.2857 110.802 21.5272C110.998 21.7657 111.298 21.8849 111.704 21.8849C112.252 21.8849 112.631 21.6709 112.832 21.2459C113.037 20.821 113.147 20.1117 113.166 19.1211L116.327 19.3075C116.345 19.4482 116.355 19.6438 116.355 19.8915C116.355 21.3957 115.942 22.5208 115.119 23.2638C114.297 24.0067 113.132 24.3797 111.628 24.3797C109.821 24.3797 108.555 23.8141 107.831 22.6798C107.103 21.5456 106.742 19.7937 106.742 17.4211V14.5777C106.742 12.1349 107.118 10.3494 107.87 9.2243C108.623 8.09918 109.91 7.53662 111.735 7.53662C112.991 7.53662 113.958 7.76593 114.63 8.2276C115.303 8.68925 115.777 9.40468 116.052 10.38C116.327 11.3553 116.465 12.7005 116.465 14.4187V17.2071H110.325V18.0326ZM110.79 10.3586C110.604 10.5879 110.481 10.9639 110.417 11.4868C110.356 12.0096 110.325 12.8014 110.325 13.8655V15.0334H113.007V13.8655C113.007 12.8198 112.97 12.0279 112.9 11.4868C112.829 10.9456 112.701 10.5665 112.514 10.3433C112.328 10.1232 112.041 10.01 111.652 10.01C111.261 10.0131 110.974 10.1293 110.79 10.3586Z" fill="white"/>
</g>
<defs>
<clipPath id="clip0_2085_65">
<rect width="116.464" height="26" fill="white"/>
</clipPath>
</defs>
</svg>
