<svg width="891" height="188" viewBox="0 0 891 188" fill="none" xmlns="http://www.w3.org/2000/svg">
<g clip-path="url(#clip0_124_5113)">
<path d="M106.093 0.019043H35.8424C16.0472 0.019043 0 16.0662 0 35.8616V106.112C0 125.908 16.0472 141.955 35.8424 141.955H106.093C125.889 141.955 141.936 125.908 141.936 106.112V35.8616C141.936 16.0662 125.889 0.019043 106.093 0.019043ZM114.81 90.2078L89.802 75.7674V85.9632C89.802 91.2082 85.5571 95.466 80.2991 95.466H36.9652C31.7199 95.466 27.475 91.2082 27.475 85.9632V55.928C27.475 50.6828 31.72 46.438 36.9652 46.438H80.2991C85.5571 46.438 89.802 50.6828 89.802 55.928V66.1235L114.81 51.696V90.2078Z" fill="white"/>
<path d="M591.171 166.384H588.02V185.021H591.171V187.822H585.112V163.583H591.171V166.384Z" fill="white"/>
<path d="M607.44 185.13L600.897 166.278H604.289L609.299 181.387L614.335 166.278H617.701L611.158 185.13H607.44Z" fill="white"/>
<path d="M620.876 166.278H623.973V185.13H620.876V166.278Z" fill="white"/>
<path d="M636.3 166.278C638.885 166.278 641.035 167.186 642.75 168.998C644.465 170.813 645.322 173.047 645.322 175.705C645.322 178.344 644.465 180.575 642.75 182.398C641.035 184.22 638.885 185.13 636.3 185.13H628.894V166.278H636.3ZM636.3 182.168C638.077 182.168 639.528 181.558 640.65 180.337C641.772 179.116 642.333 177.572 642.333 175.705C642.333 173.82 641.772 172.271 640.65 171.058C639.528 169.847 638.077 169.241 636.3 169.241H631.991V182.168H636.3Z" fill="white"/>
<path d="M652.404 182.168H660.752V185.13H649.307V166.278H660.618V169.241H652.404V174.143H659.945V177.079H652.404V182.168Z" fill="white"/>
<path d="M680.348 182.647C678.453 184.542 676.142 185.488 673.413 185.488C670.683 185.488 668.372 184.542 666.477 182.647C664.584 180.753 663.637 178.441 663.637 175.712C663.637 172.983 664.584 170.671 666.477 168.778C668.372 166.883 670.683 165.936 673.413 165.936C676.142 165.936 678.453 166.883 680.348 168.778C682.241 170.671 683.189 172.983 683.189 175.712C683.189 178.441 682.241 180.753 680.348 182.647ZM668.659 180.547C669.943 181.83 671.527 182.471 673.413 182.471C675.298 182.471 676.882 181.83 678.166 180.547C679.45 179.263 680.092 177.651 680.092 175.712C680.092 173.774 679.45 172.162 678.166 170.878C676.882 169.594 675.298 168.952 673.413 168.952C671.527 168.952 669.943 169.594 668.659 170.878C667.375 172.162 666.734 173.774 666.734 175.712C666.734 177.651 667.375 179.263 668.659 180.547Z" fill="white"/>
<path d="M702.017 166.278C703.795 166.278 705.28 166.872 706.474 168.056C707.667 169.241 708.265 170.714 708.265 172.472C708.265 174.214 707.667 175.682 706.474 176.876C705.28 178.071 703.795 178.667 702.017 178.667H698.166V185.13H695.068V166.278H702.017ZM702.017 175.759C702.932 175.759 703.687 175.449 704.28 174.829C704.872 174.209 705.168 173.424 705.168 172.472C705.168 171.522 704.872 170.735 704.28 170.117C703.687 169.497 702.932 169.187 702.017 169.187H698.166V175.759H702.017Z" fill="white"/>
<path d="M722.859 185.13L718.874 178.263H715.211V185.13H712.114V166.278H719.654C721.342 166.278 722.774 166.867 723.95 168.043C725.126 169.219 725.714 170.65 725.714 172.338C725.714 173.541 725.369 174.64 724.678 175.637C723.986 176.634 723.083 177.357 721.971 177.805L726.253 185.13H722.859ZM715.211 169.187V175.489H719.654C720.481 175.489 721.181 175.184 721.756 174.574C722.329 173.963 722.617 173.218 722.617 172.338C722.617 171.459 722.329 170.714 721.756 170.103C721.181 169.493 720.481 169.187 719.654 169.187H715.211Z" fill="white"/>
<path d="M745.42 182.647C743.525 184.542 741.215 185.488 738.486 185.488C735.755 185.488 733.445 184.542 731.55 182.647C729.656 180.753 728.709 178.441 728.709 175.712C728.709 172.983 729.656 170.671 731.55 168.778C733.445 166.883 735.755 165.936 738.486 165.936C741.215 165.936 743.525 166.883 745.42 168.778C747.314 170.671 748.262 172.983 748.262 175.712C748.262 178.441 747.314 180.753 745.42 182.647ZM733.732 180.547C735.015 181.83 736.6 182.471 738.486 182.471C740.37 182.471 741.955 181.83 743.238 180.547C744.522 179.263 745.165 177.651 745.165 175.712C745.165 173.774 744.522 172.162 743.238 170.878C741.955 169.594 740.37 168.952 738.486 168.952C736.6 168.952 735.015 169.594 733.732 170.878C732.448 172.162 731.807 173.774 731.807 175.712C731.807 177.651 732.448 179.263 733.732 180.547Z" fill="white"/>
<path d="M759.653 166.278C762.238 166.278 764.388 167.186 766.103 168.998C767.817 170.813 768.675 173.047 768.675 175.705C768.675 178.344 767.817 180.575 766.103 182.398C764.388 184.22 762.238 185.13 759.653 185.13H752.246V166.278H759.653ZM759.653 182.168C761.43 182.168 762.88 181.558 764.002 180.337C765.124 179.116 765.686 177.572 765.686 175.705C765.686 173.82 765.124 172.271 764.002 171.058C762.88 169.847 761.43 169.241 759.653 169.241H755.343V182.168H759.653Z" fill="white"/>
<path d="M784.593 183.69C783.263 184.884 781.55 185.481 779.448 185.481C777.348 185.481 775.634 184.884 774.305 183.69C772.976 182.497 772.312 180.893 772.312 178.882V166.278H775.409V178.694C775.409 179.843 775.746 180.759 776.419 181.441C777.093 182.123 778.102 182.464 779.448 182.464C780.796 182.464 781.805 182.123 782.479 181.441C783.152 180.759 783.489 179.843 783.489 178.694V166.278H786.586V178.882C786.586 180.893 785.921 182.497 784.593 183.69Z" fill="white"/>
<path d="M800.219 185.488C797.382 185.488 795.03 184.55 793.163 182.674C791.296 180.798 790.363 178.478 790.363 175.712C790.363 172.947 791.296 170.626 793.163 168.75C795.03 166.874 797.382 165.936 800.219 165.936C801.925 165.936 803.5 166.339 804.946 167.148C806.391 167.956 807.518 169.051 808.326 170.433L805.632 171.995C805.13 171.062 804.398 170.322 803.438 169.773C802.477 169.226 801.404 168.952 800.219 168.952C798.208 168.952 796.578 169.589 795.331 170.864C794.084 172.139 793.46 173.755 793.46 175.712C793.46 177.67 794.084 179.285 795.331 180.56C796.578 181.835 798.208 182.471 800.219 182.471C801.404 182.471 802.481 182.198 803.452 181.65C804.421 181.103 805.147 180.362 805.632 179.428L808.326 180.964C807.536 182.346 806.417 183.446 804.973 184.262C803.527 185.08 801.942 185.488 800.219 185.488Z" fill="white"/>
<path d="M824.154 166.278V169.241H818.848V185.13H815.75V169.241H810.419V166.278H824.154Z" fill="white"/>
<path d="M827.607 166.278H830.704V185.13H827.607V166.278Z" fill="white"/>
<path d="M851.396 182.647C849.501 184.542 847.19 185.488 844.461 185.488C841.731 185.488 839.42 184.542 837.525 182.647C835.632 180.753 834.685 178.441 834.685 175.712C834.685 172.983 835.632 170.671 837.525 168.778C839.42 166.883 841.731 165.936 844.461 165.936C847.19 165.936 849.501 166.883 851.396 168.778C853.289 170.671 854.237 172.983 854.237 175.712C854.237 178.441 853.289 180.753 851.396 182.647ZM839.707 180.547C840.991 181.83 842.575 182.471 844.461 182.471C846.346 182.471 847.93 181.83 849.214 180.547C850.498 179.263 851.14 177.651 851.14 175.712C851.14 173.774 850.498 172.162 849.214 170.878C847.93 169.594 846.346 168.952 844.461 168.952C842.575 168.952 840.991 169.594 839.707 170.878C838.423 172.162 837.782 173.774 837.782 175.712C837.782 177.651 838.423 179.263 839.707 180.547Z" fill="white"/>
<path d="M869.533 166.278H872.63V185.13H870.207L861.319 172.338V185.13H858.222V166.278H860.646L869.533 179.071V166.278Z" fill="white"/>
<path d="M890.155 163.583V187.822H884.095V185.021H887.246V166.384H884.095V163.583H890.155Z" fill="white"/>
<path d="M182.705 64.444C186.715 56.9534 192.289 51.1436 199.429 47.012C206.567 42.8841 214.737 40.8176 223.941 40.8176C235.856 40.8176 245.679 43.7107 253.407 49.4904C261.133 55.2715 266.238 63.2943 268.717 73.5589H251.372C249.719 67.6601 246.505 63.0012 241.727 59.5772C236.948 56.1569 231.02 54.4449 223.941 54.4449C214.737 54.4449 207.304 57.6034 201.641 63.913C195.978 70.2263 193.146 79.1646 193.146 90.7255C193.146 102.407 195.978 111.432 201.641 117.803C207.304 124.174 214.737 127.36 223.941 127.36C231.02 127.36 236.918 125.71 241.639 122.405C246.356 119.103 249.603 114.383 251.372 108.246H268.717C266.119 118.158 260.929 126.094 253.142 132.051C245.354 138.009 235.621 140.988 223.941 140.988C214.737 140.988 206.567 138.925 199.429 134.793C192.289 130.664 186.715 124.824 182.705 117.272C178.692 109.723 176.687 100.875 176.687 90.7254C176.687 80.6988 178.692 71.9383 182.705 64.444Z" fill="white" stroke="white" stroke-width="2.94963" stroke-miterlimit="10"/>
<path d="M306.228 8.43701V139.401H290.124V8.43701H306.228Z" fill="white" stroke="white" stroke-width="2.94963" stroke-miterlimit="10"/>
<path d="M334.203 23.4764C332.079 21.3523 331.017 18.7586 331.017 15.689C331.017 12.6219 332.079 10.0257 334.203 7.90163C336.327 5.77757 338.921 4.7168 341.99 4.7168C344.937 4.7168 347.446 5.77757 349.511 7.90163C351.575 10.0257 352.608 12.6219 352.608 15.689C352.608 18.7586 351.575 21.3523 349.511 23.4764C347.446 25.5992 344.937 26.6612 341.99 26.6612C338.921 26.6612 336.327 25.5992 334.203 23.4764ZM349.776 42.4125V139.396H333.672V42.4125H349.776Z" fill="white" stroke="white" stroke-width="2.94963" stroke-miterlimit="10"/>
<path d="M407.548 46.3933C413.859 42.6762 421.203 40.8176 429.582 40.8176C438.193 40.8176 446.011 42.8841 453.032 47.012C460.05 51.1436 465.567 56.9534 469.579 64.444C473.588 71.9383 475.596 80.6374 475.596 90.5488C475.596 100.344 473.588 109.073 469.579 116.741C465.567 124.412 460.05 130.369 453.032 134.617C446.011 138.864 438.193 140.988 429.582 140.988C421.322 140.988 414.036 139.129 407.725 135.412C401.412 131.696 396.604 127.067 393.301 121.519V185.409H377.197V42.4107H393.301V60.2861C396.487 54.7405 401.235 50.1091 407.548 46.3933ZM454.714 71.4349C451.763 66.0095 447.78 61.8778 442.767 59.0462C437.751 56.2145 432.237 54.7993 426.219 54.7993C420.319 54.7993 414.862 56.2458 409.849 59.1351C404.833 62.0281 400.823 66.2136 397.815 71.7004C394.807 77.1871 393.301 83.5305 393.301 90.7254C393.301 98.0432 394.807 104.442 397.815 109.928C400.823 115.414 404.833 119.603 409.849 122.494C414.862 125.385 420.319 126.829 426.219 126.829C432.237 126.829 437.751 125.385 442.767 122.494C447.78 119.603 451.763 115.414 454.714 109.928C457.66 104.442 459.137 97.9818 459.137 90.5488C459.137 83.2349 457.66 76.8627 454.714 71.4349Z" fill="white" stroke="white" stroke-width="2.94963" stroke-miterlimit="10"/>
<path d="M497.055 133.735C490.565 128.898 487.321 122.408 487.321 114.268C487.321 112.735 487.38 111.613 487.498 110.905H503.249C502.777 115.979 504.281 120.108 507.763 123.294C511.241 126.479 516.285 128.072 522.894 128.072C529.501 128.072 534.84 126.805 538.911 124.267C542.981 121.731 545.016 118.161 545.016 113.559C545.016 109.667 543.363 106.599 540.061 104.356C536.757 102.117 531.682 99.6975 524.84 97.1C518.824 94.8607 513.868 92.7367 509.975 90.7291C506.081 88.724 502.777 85.9237 500.064 82.3231C497.348 78.7249 495.993 74.1537 495.993 68.6069C495.993 63.1815 497.556 58.3423 500.683 54.0954C503.808 49.8473 508.175 46.5735 513.779 44.2729C519.383 41.9722 525.783 40.8213 532.982 40.8213C542.892 40.8213 551.033 43.2998 557.405 48.2542C563.776 53.21 566.962 59.6998 566.962 67.7227C566.962 69.2568 566.901 70.4378 566.784 71.2619H551.387L551.564 69.1379C551.564 64.4201 549.764 60.6729 546.166 57.9002C542.567 55.1286 537.818 53.741 531.92 53.741C526.138 53.741 521.39 55.0409 517.673 57.6346C513.957 60.2308 512.099 63.7125 512.099 68.0758C512.099 72.2075 513.807 75.4512 517.231 77.8094C520.651 80.1714 525.961 82.7651 533.159 85.5968C539.177 87.9588 544.012 90.1104 547.672 92.0566C551.327 94.0028 554.454 96.688 557.051 100.11C559.644 103.532 560.944 107.838 560.944 113.029C560.944 118.691 559.264 123.647 555.901 127.895C552.538 132.142 547.906 135.388 542.008 137.629C536.107 139.868 529.442 140.991 522.009 140.991C511.861 140.991 503.542 138.574 497.055 133.735Z" fill="white" stroke="white" stroke-width="2.94963" stroke-miterlimit="10"/>
<path d="M726.6 42.4109L679.17 139.395H662.534L652.977 62.2325L615.812 139.395H599.175L585.902 42.4109H602.361L610.325 123.821L648.553 42.4109H665.189L674.391 123.29L710.672 42.4109H726.6Z" fill="white" stroke="white" stroke-width="2.94963" stroke-miterlimit="10"/>
<path d="M758.623 42.4096L741.456 139.394H725.351L742.517 42.4096H758.623ZM747.031 24.0921C745.319 22.3839 744.465 20.2298 744.465 17.6323C744.465 14.093 745.761 11.0572 748.358 8.51864C750.952 5.98254 753.96 4.71387 757.384 4.71387C760.097 4.71387 762.279 5.54044 763.932 7.1911C765.582 8.84425 766.409 11.0259 766.409 13.7386C766.409 17.2791 765.11 20.3174 762.517 22.8535C759.919 25.3921 756.911 26.6583 753.491 26.6583C750.893 26.6583 748.739 25.8042 747.031 24.0921Z" fill="white" stroke="white" stroke-width="2.94963" stroke-miterlimit="10"/>
<path d="M813.04 21.7944C809.679 24.5685 807.466 29.1397 806.404 35.5106L805.165 42.4125H825.518L823.217 55.6854H802.865L787.999 139.396H771.893L786.582 55.6854H774.194L776.496 42.4125H788.883L790.123 35.5106C792.127 24.6561 796.375 16.7235 802.865 11.7064C809.352 6.69308 818.793 4.18579 831.181 4.18579L828.881 17.6352C821.682 17.6352 816.403 19.0241 813.04 21.7944Z" fill="white" stroke="white" stroke-width="2.94963" stroke-miterlimit="10"/>
<path d="M851.537 112.848C851.184 114.617 851.006 116.153 851.006 117.449C851.006 120.4 851.919 122.524 853.75 123.821C855.578 125.12 858.556 125.767 862.687 125.767H874.545L872.067 139.395H857.555C849.884 139.395 844.132 137.921 840.3 134.97C836.464 132.022 834.547 127.183 834.547 120.458C834.547 117.865 834.783 115.326 835.255 112.848L845.343 55.6835H832.954L835.255 42.4107H847.821L852.068 17.9878H868.351L864.103 42.4107H889.234L886.934 55.6835H861.625L851.537 112.848Z" fill="white" stroke="white" stroke-width="2.94963" stroke-miterlimit="10"/>
<path d="M826.094 40.9409C829.766 40.9393 833.438 40.9378 837.11 40.9363C836.244 46.3433 835.377 51.7502 834.511 57.1572H820.972C822.679 51.7518 824.386 46.3463 826.094 40.9409Z" fill="white"/>
</g>
<defs>
<clipPath id="clip0_124_5113">
<rect width="891" height="187.802" fill="white"/>
</clipPath>
</defs>
</svg>
