<svg width="461" height="461" viewBox="0 0 461 461" fill="none" xmlns="http://www.w3.org/2000/svg">
<path d="M344.585 0H116.414C52.1204 0 0 52.1204 0 116.414V344.584C0 408.879 52.1204 461 116.414 461H344.585C408.879 461 461 408.879 461 344.584V116.414C461 52.1204 408.879 0 344.585 0ZM372.895 292.928L291.672 246.026V279.141C291.672 296.177 277.884 310.006 260.807 310.006H120.061C103.024 310.006 89.2373 296.177 89.2373 279.141V181.589C89.2373 164.553 103.024 150.766 120.061 150.766H260.807C277.884 150.766 291.672 164.553 291.672 181.589V214.703L372.895 167.844V292.928Z" fill="#D3FFF7"/>
</svg>
