<svg width="25" height="18" viewBox="0 0 25 18" fill="none" xmlns="http://www.w3.org/2000/svg">
<path d="M24.2131 4.88143C24.0657 3.45816 23.7485 1.88479 22.581 1.05795C21.6767 0.41675 20.4881 0.393045 19.3786 0.394362C17.033 0.394362 14.6862 0.398317 12.3406 0.399634C10.0846 0.402267 7.82854 0.403582 5.5725 0.406215C4.63007 0.406215 3.71396 0.333799 2.83866 0.741954C2.08709 1.09218 1.49873 1.7584 1.14466 2.49966C0.653705 3.53058 0.551043 4.69843 0.491812 5.83863C0.382564 7.91495 0.39441 9.99654 0.524718 12.0715C0.620804 13.5857 0.864305 15.2591 2.03444 16.2242C3.07164 17.0787 4.5353 17.1208 5.8805 17.1221C10.1504 17.1261 14.4216 17.13 18.6928 17.1327C19.2404 17.134 19.8116 17.1235 20.3697 17.0629C21.4674 16.9444 22.5138 16.6297 23.2193 15.816C23.9314 14.9958 24.1144 13.8543 24.2223 12.7733C24.4856 10.1506 24.4829 7.50284 24.2131 4.88143ZM9.87135 12.4402V5.08683L16.2367 8.76285L9.87135 12.4402Z" fill="white"/>
</svg>
