<svg width="80" height="78" viewBox="0 0 80 78" fill="none" xmlns="http://www.w3.org/2000/svg">
<path d="M28.4667 34.7667C28.1333 33.7333 27.8333 32.7333 27.5 31.7C27.1667 30.6667 26.8667 29.7 26.6 28.7333C26.3333 27.8 26.1 26.9333 25.8667 26.1333H25.8C25.5 27.5667 25.1333 29 24.6667 30.4333C24.1667 32.0333 23.6667 33.7 23.1333 35.3667C22.7 37.0667 22.1667 38.6333 21.6667 40.0333H30.1333C29.9333 39.3333 29.6667 38.5 29.3667 37.6333C29.0667 36.7333 28.7667 35.7667 28.4667 34.7667ZM57.0667 33.8C55.2333 33.7 53.5 34.6667 52.6333 36.3333C52.2333 37.1 52 37.9 51.9 38.7333H58.93C59.7967 38.7333 60.43 38.7333 60.83 38.7C61.0967 38.6667 61.3633 38.6 61.5967 38.4333V38.1C61.5967 37.6667 61.5267 37.2667 61.3933 36.8667C60.8 35 59.0333 33.7333 57.0667 33.8ZM65.8333 0H14.1667C6.33333 0 0 6.33333 0 14.1667V63.8333C0 71.6667 6.33333 78 14.1667 78H65.8333C73.6667 78 80 71.6667 80 63.8333V14.1667C80 6.33333 73.6667 0 65.8333 0ZM42.3667 55.0367H35.4C35.1667 55.07 34.9333 54.9 34.8667 54.67L32.1333 46.67H19.7333L17.2 54.5367C17.1333 54.8367 16.8667 55.0367 16.5667 55.0033H10.3C9.93333 55.0033 9.83333 54.8033 9.93333 54.4033L20.6667 23.6333C20.7667 23.3 20.8667 23 21 22.6C21.1333 21.9 21.2 21.1667 21.2 20.4333C21.1667 20.2667 21.3 20.1 21.4667 20.0667H30.1C30.3333 20.0667 30.5 20.1667 30.5333 20.3333L42.7 54.5C42.8 54.8667 42.7033 55.0367 42.3667 55.0367ZM68.5367 41.7333C68.4667 42.3633 68.4333 42.8333 68.4 43.1333C68.3667 43.3667 68.17 43.5667 67.9333 43.5667C67.7333 43.5667 67.3667 43.6 66.8333 43.6367C66.3033 43.7033 65.6667 43.7333 64.9033 43.7333C64.1367 43.7333 63.3333 43.6 62.47 43.6H51.9033C52.0333 44.6333 52.37 45.6667 52.9367 46.5667C53.54 47.47 54.3733 48.1667 55.3667 48.57C56.7 49.1367 58.17 49.4367 59.6367 49.4033C60.8033 49.3667 61.9667 49.27 63.1 49.0367C64.1367 48.9067 65.1333 48.64 66.07 48.27C66.2367 48.14 66.3367 48.2033 66.3367 48.5367V53.64C66.3367 53.77 66.3033 53.9067 66.2667 54.0367C66.1967 54.1367 66.1333 54.2067 66.0367 54.27C64.97 54.7367 63.87 55.07 62.7033 55.27C61.1333 55.57 59.57 55.7033 57.97 55.67C55.4333 55.67 53.3033 55.27 51.57 54.5033C49.9367 53.8 48.5 52.7 47.3667 51.3367C46.3033 50.0367 45.5333 48.57 45.0667 46.97C44.6 45.4 44.37 43.7667 44.37 42.1C44.37 40.3033 44.6367 38.5333 45.2033 36.8C45.7367 35.1333 46.57 33.6 47.7033 32.2333C48.8033 30.9 50.1667 29.8333 51.7333 29.0667C53.3033 28.3 55.1667 28.0333 57.3 28.0333C59.07 28 60.8333 28.3333 62.4667 29.0667C63.8333 29.6667 65.0333 30.5667 65.9667 31.7333C66.8333 32.8667 67.5333 34.1333 67.97 35.5333C68.4 36.8667 68.6 38.2333 68.6 39.6C68.6 40.4 68.5667 41.1 68.5367 41.7333Z" fill="#2C2C2E"/>
</svg>
