<svg width="166" height="60" viewBox="0 0 166 60" fill="none" xmlns="http://www.w3.org/2000/svg">
<path d="M0.00195312 0.00289602V46.3494L5.96537 46.3678V24.297H20.3435V18.4633H5.96537V5.83382H24.6909V0L0.00195312 0.00289602Z" fill="#2C2C2E"/>
<path d="M35.4197 9.41085C37.5677 9.41085 39.3088 7.66959 39.3088 5.52163C39.3088 3.37368 37.5677 1.63242 35.4197 1.63242C33.2719 1.63242 31.5305 3.37368 31.5305 5.52163C31.5305 7.66959 33.2719 9.41085 35.4197 9.41085Z" fill="#2C2C2E"/>
<path d="M32.393 15.2461V46.3599H38.3564V15.2461H32.393Z" fill="#2C2C2E"/>
<path fill-rule="evenodd" clip-rule="evenodd" d="M60.473 14.3379C52.554 14.3379 47.0276 21.0354 47.0276 28.9872C47.0276 36.9392 52.554 43.6366 60.473 43.6366C64.0985 43.6366 67.0862 42.233 69.2607 39.9481V44.0904C69.2607 49.2454 65.2116 53.5541 59.9268 53.5541C58.0273 53.5541 56.1399 52.8178 54.6362 51.7815L51.6482 56.9566C54.0346 58.495 56.8765 59.3879 59.9268 59.3879C68.3754 59.3879 75.2241 52.5389 75.2241 44.0904V15.2454H69.2607V18.0265C67.0862 15.7415 64.0985 14.3379 60.473 14.3379ZM52.991 28.9872C52.991 24.0513 56.7666 20.1717 61.1212 20.1717C65.4761 20.1717 69.2515 24.0513 69.2515 28.9872C69.2515 33.9231 65.4761 37.8028 61.1212 37.8028C56.7666 37.8028 52.991 33.9231 52.991 28.9872Z" fill="#2C2C2E"/>
<path d="M96.7169 20.1717C93.1907 20.1717 90.3321 23.1598 90.3321 26.6861V46.3592H84.3687V15.2454H90.3321V18.0956C92.0794 15.8368 94.6537 14.3379 98.0132 14.3379C102.192 14.3379 105.399 16.4134 107.256 19.5897C109.322 16.5216 112.691 14.3379 116.746 14.3379C123.533 14.3379 127.758 19.8139 127.798 26.5888C127.798 26.6093 127.798 26.6297 127.798 26.6504V26.6536C127.798 26.6644 127.798 26.6752 127.798 26.6861V46.3592H121.835V26.6861C121.835 23.1598 118.976 20.1717 115.45 20.1717C111.923 20.1717 109.065 23.1598 109.065 26.6861V46.3592H103.102V26.6861C103.102 23.1598 100.243 20.1717 96.7169 20.1717Z" fill="#2C2C2E"/>
<path fill-rule="evenodd" clip-rule="evenodd" d="M159.557 18.7724C156.904 16.0329 153.27 14.3379 149.056 14.3379C140.184 14.3379 133.888 21.8494 133.888 30.8021C133.888 39.755 140.184 47.2665 149.056 47.2665C153.27 47.2665 156.904 45.5716 159.557 42.832V46.3592H165.52V15.2454H159.557V18.7724ZM139.852 30.8021C139.852 24.8626 144.399 20.1717 149.704 20.1717C155.009 20.1717 159.557 24.8626 159.557 30.8021C159.557 36.7419 155.009 41.4327 149.704 41.4327C144.399 41.4327 139.852 36.7419 139.852 30.8021Z" fill="#2C2C2E"/>
</svg>
