<svg width="233" height="60" viewBox="0 0 233 60" fill="none" xmlns="http://www.w3.org/2000/svg">
<path d="M89.3145 22.6781L84.5755 35.7867H94.2446L89.4674 22.6781H89.3145ZM80.4863 47.1372H76.3588L87.289 18.0921H91.5311L102.461 47.1372H98.3338L95.5439 39.2645H83.3144L80.4863 47.1372Z" fill="#2C2C2E"/>
<path d="M104.334 27.2638H107.926V30.0154H108.079C108.633 29.0504 109.503 28.2479 110.678 27.6077C111.872 26.9485 113.095 26.6141 114.347 26.6141C116.793 26.6141 118.665 27.3211 119.965 28.716C121.283 30.0918 121.952 32.0696 121.952 34.6397V47.1368H118.207V34.9072C118.13 31.6492 116.496 30.0154 113.315 30.0154C111.834 30.0154 110.582 30.6269 109.569 31.8498C108.576 33.0537 108.079 34.4773 108.079 36.1302V47.1368H104.334V27.2638Z" fill="#2C2C2E"/>
<path d="M128.875 41.0602C128.875 42.0347 129.276 42.8469 130.098 43.5061C130.91 44.1462 131.875 44.4615 133.002 44.4615C134.55 44.4615 135.945 43.8883 137.168 42.7418C138.41 41.5761 139.041 40.2003 139.041 38.6143C137.865 37.6971 136.232 37.2385 134.149 37.2385C132.639 37.2385 131.378 37.6111 130.365 38.3468C129.372 39.0633 128.875 39.971 128.875 41.0602ZM133.69 26.6141C136.442 26.6141 138.601 27.3593 140.187 28.8307C141.792 30.3116 142.595 32.3371 142.595 34.9072V47.1367H139.041V44.3851H138.888C137.33 46.659 135.267 47.7864 132.697 47.7864C130.499 47.7864 128.665 47.1368 127.193 45.8374C125.741 44.538 125.015 42.9233 125.015 40.9838C125.015 38.92 125.789 37.2958 127.346 36.092C128.894 34.869 130.977 34.2575 133.576 34.2575C135.792 34.2575 137.608 34.6588 139.041 35.4423V34.6015C139.041 33.3021 138.515 32.2129 137.474 31.3148C136.451 30.3976 135.257 29.939 133.881 29.939C131.789 29.939 130.146 30.818 128.951 32.576L125.665 30.5122C127.47 27.9135 130.146 26.6141 133.69 26.6141Z" fill="#2C2C2E"/>
<path d="M150.407 18.0922V47.1373H146.662V18.0922H150.407Z" fill="#2C2C2E"/>
<path d="M172.422 27.2645L159.963 55.8892H156.142L160.766 45.8763L152.549 27.2645H156.6L162.524 41.5577H162.6L168.371 27.2645H172.422Z" fill="#2C2C2E"/>
<path d="M182.684 47.4436C181.079 47.4436 179.741 46.9467 178.671 45.9531C177.601 44.9594 177.047 43.5741 177.028 41.7874V30.6662H173.512V27.2648H177.028V21.1883H180.735V27.2648H185.626V30.6662H180.735V40.5645C180.735 41.8925 180.983 42.8002 181.499 43.2779C182.034 43.7365 182.617 43.9658 183.257 43.9658C183.563 43.9658 183.849 43.9467 184.136 43.8894C184.413 43.8129 184.681 43.7269 184.939 43.6218L186.085 46.9467C185.111 47.2716 183.983 47.4436 182.684 47.4436Z" fill="#2C2C2E"/>
<path d="M193.795 20.4233C193.795 21.1399 193.527 21.7609 192.992 22.296C192.476 22.8119 191.865 23.0603 191.158 23.0603C190.413 23.0603 189.792 22.8119 189.285 22.296C188.769 21.7609 188.521 21.1399 188.521 20.4233C188.521 19.6876 188.769 19.0666 189.285 18.5507C189.792 18.0443 190.413 17.7863 191.158 17.7863C191.865 17.7863 192.476 18.0443 192.992 18.5507C193.527 19.0666 193.795 19.6876 193.795 20.4233ZM193.031 27.2642V47.1372H189.285V27.2642H193.031Z" fill="#2C2C2E"/>
<path d="M205.606 47.7864C202.644 47.7864 200.198 46.7832 198.268 44.7673C196.358 42.7322 195.402 40.2099 195.402 37.2003C195.402 34.1429 196.358 31.6205 198.268 29.6332C200.198 27.6268 202.644 26.6141 205.606 26.6141C207.641 26.6141 209.409 27.13 210.918 28.1428C212.418 29.1651 213.555 30.5696 214.32 32.3467L210.918 33.7607C209.867 31.267 208.023 30.0154 205.377 30.0154C203.667 30.0154 202.186 30.7033 200.944 32.0791C199.721 33.455 199.109 35.1652 199.109 37.2003C199.109 39.2449 199.721 40.9456 200.944 42.3214C202.186 43.6972 203.667 44.3851 205.377 44.3851C208.1 44.3851 210.011 43.143 211.109 40.6398L214.434 42.0538C213.718 43.8405 212.581 45.245 211.033 46.2578C209.476 47.2705 207.67 47.7864 205.606 47.7864Z" fill="#2C2C2E"/>
<path d="M232.893 41.6337C232.893 43.3726 232.129 44.8344 230.6 46.0287C229.091 47.1943 227.199 47.7867 224.906 47.7867C222.919 47.7867 221.161 47.2612 219.632 46.2198C218.122 45.1783 217.043 43.8025 216.383 42.0923L219.708 40.6783C220.215 41.8821 220.931 42.8089 221.849 43.4681C222.785 44.1369 223.807 44.4618 224.906 44.4618C226.1 44.4618 227.094 44.2134 227.887 43.6974C228.699 43.191 229.11 42.5796 229.11 41.863C229.11 40.5923 228.126 39.6655 226.167 39.0731L222.766 38.2323C218.887 37.2387 216.957 35.366 216.957 32.6144C216.957 30.8086 217.692 29.3564 219.173 28.2576C220.645 27.1684 222.536 26.6143 224.829 26.6143C226.587 26.6143 228.173 27.0347 229.607 27.8755C231.03 28.7162 232.024 29.8437 232.588 31.2386L229.263 32.6144C228.881 31.7736 228.25 31.1239 227.39 30.6653C226.549 30.1876 225.603 29.9392 224.562 29.9392C223.587 29.9392 222.708 30.1876 221.925 30.6653C221.161 31.1526 220.778 31.7545 220.778 32.4615C220.778 33.5889 221.849 34.4011 223.989 34.9074L226.97 35.6718C230.916 36.6463 232.893 38.6336 232.893 41.6337Z" fill="#2C2C2E"/>
<path d="M37.4999 7.15908V52.1591C37.4999 57.1981 40.9729 60 44.659 60C48.0681 60 51.8181 57.6136 51.8181 52.1591V7.49999C51.8181 2.88707 48.409 0 44.659 0C40.909 0 37.4999 3.18536 37.4999 7.15908Z" fill="#2C2C2E"/>
<path d="M18.7406 30.0001V52.1592C18.7406 57.1982 22.2136 60.0001 25.8997 60.0001C29.3088 60.0001 33.0588 57.6137 33.0588 52.1592V30.341C33.0588 25.7281 29.6497 22.841 25.8997 22.841C22.1497 22.841 18.7406 26.0264 18.7406 30.0001Z" fill="#2C2C2E"/>
<path d="M14.3182 52.8411C14.3182 56.7935 11.1115 60.0002 7.15911 60.0002C3.20668 60.0002 0 56.7935 0 52.8411C0 48.8887 3.20668 45.682 7.15911 45.682C11.1115 45.682 14.3182 48.8887 14.3182 52.8411Z" fill="#2C2C2E"/>
</svg>
