<svg width="173" height="60" viewBox="0 0 173 60" fill="none" xmlns="http://www.w3.org/2000/svg">
<path d="M3.61008 2.58722L36.8107 0.136834C40.8878 -0.213635 41.9368 0.0211191 44.4993 1.88676L55.0973 9.35218C56.846 10.6359 57.4289 10.9854 57.4289 12.3849V53.33C57.4289 55.8962 56.4961 57.4138 53.2352 57.6459L14.6795 59.9794C12.2316 60.0963 11.0665 59.7468 9.7846 58.1126L1.98003 47.964C0.58154 46.0959 0 44.6984 0 43.0632V6.66848C0 4.56999 0.932954 2.81959 3.61008 2.58722Z" fill="white"/>
<path fill-rule="evenodd" clip-rule="evenodd" d="M36.8107 0.136834L3.61008 2.58722C0.932954 2.81959 0 4.56999 0 6.66848V43.0632C0 44.6984 0.58154 46.0959 1.98003 47.964L9.7846 58.1126C11.0665 59.7468 12.2316 60.0963 14.6795 59.9794L53.2352 57.6459C56.4961 57.4138 57.4289 55.8962 57.4289 53.33V12.3849C57.4289 11.0584 56.9052 10.6752 55.3614 9.54567C55.2764 9.48353 55.1885 9.41912 55.0973 9.35218L44.4993 1.88676C41.9368 0.0211191 40.8878 -0.213635 36.8107 0.136834ZM15.5526 11.7133C12.405 11.9263 11.6898 11.9747 9.90232 10.5193L5.35673 6.9032C4.89311 6.4356 5.12564 5.85231 6.28959 5.73662L38.2061 3.40337C40.8846 3.16956 42.2821 4.10429 43.331 4.92046L48.8051 8.88697C49.0383 9.00313 49.6196 9.70217 48.9205 9.70217L15.9591 11.6859C15.8216 11.6951 15.6885 11.7041 15.5595 11.7129L15.555 11.7131L15.5526 11.7133ZM11.8812 52.9795V18.2186C11.8812 16.7025 12.3472 16.002 13.7442 15.8842L51.5992 13.6687C52.8833 13.5521 53.4647 14.3691 53.4647 15.8842V50.412C53.4647 51.9295 53.2311 53.2145 51.1337 53.33L14.9091 55.4309C12.8127 55.5464 11.8812 54.8477 11.8812 52.9795ZM47.6421 20.0832C47.8744 21.134 47.6421 22.1841 46.5918 22.3022L44.8463 22.6507V48.3134C43.331 49.1297 41.9335 49.5965 40.769 49.5965C38.9047 49.5965 38.4378 49.0128 37.0413 47.264L25.6246 29.2999V46.6807L29.2373 47.4979C29.2373 47.4979 29.2373 49.5965 26.3227 49.5965L18.2874 50.0636C18.0539 49.5965 18.2874 48.431 19.1024 48.1973L21.1993 47.615V24.6345L18.2879 24.4006C18.0544 23.3498 18.6359 21.8345 20.2678 21.7169L28.8878 21.1346L40.769 39.3324V23.2339L37.7399 22.8854C37.5072 21.6007 38.4378 20.6679 39.6028 20.5522L47.6421 20.0832Z" fill="#2C2C2E"/>
<path d="M135.683 42.5033H131.704V24.8772H135.683V42.5033Z" fill="#2C2C2E"/>
<path d="M136.07 19.5604C136.07 20.8977 135.007 21.961 133.685 21.961C132.38 21.961 131.301 20.8977 131.301 19.5604C131.301 18.223 132.38 17.1436 133.685 17.1436C135.007 17.1436 136.07 18.223 136.07 19.5604Z" fill="#2C2C2E"/>
<path d="M82.8673 26.6814V42.503H78.8555V19.2539H82.4646L93.8717 35.0594H94.1456V19.2539H98.1413V42.503H94.5483L83.1412 26.6814H82.8673Z" fill="#2C2C2E"/>
<path fill-rule="evenodd" clip-rule="evenodd" d="M117.905 33.6901C117.905 39.4097 114.698 42.8576 109.43 42.8576C104.145 42.8576 100.955 39.4097 100.955 33.6901C100.955 28.0026 104.194 24.5225 109.43 24.5225C114.682 24.5225 117.905 27.9865 117.905 33.6901ZM105.047 33.6901C105.047 37.3796 106.642 39.5063 109.43 39.5063C112.217 39.5063 113.796 37.3796 113.796 33.6901C113.796 30.0166 112.201 27.8737 109.43 27.8737C106.642 27.8737 105.047 30.0166 105.047 33.6901Z" fill="#2C2C2E"/>
<path d="M121.555 20.5586V24.9893H118.768V28.1795H121.555V37.7981C121.555 41.2138 123.166 42.5832 127.21 42.5832C127.983 42.5832 128.725 42.5026 129.305 42.3898V39.2642L129.265 39.2681C128.804 39.3143 128.5 39.3448 127.951 39.3448C126.276 39.3448 125.534 38.5714 125.534 36.8314V28.1795H129.305V24.9893H125.534V20.5586H121.555Z" fill="#2C2C2E"/>
<path fill-rule="evenodd" clip-rule="evenodd" d="M146.598 42.8576C151.866 42.8576 155.073 39.4097 155.073 33.6901C155.073 27.9865 151.85 24.5225 146.598 24.5225C141.362 24.5225 138.123 28.0026 138.123 33.6901C138.123 39.4097 141.313 42.8576 146.598 42.8576ZM146.598 39.5063C143.811 39.5063 142.215 37.3796 142.215 33.6901C142.215 30.0166 143.811 27.8737 146.598 27.8737C149.369 27.8737 150.964 30.0166 150.964 33.6901C150.964 37.3796 149.385 39.5063 146.598 39.5063Z" fill="#2C2C2E"/>
<path d="M161.447 42.5031H157.451V24.877H161.302V27.6965H161.576C162.414 25.7309 164.186 24.5225 166.812 24.5225C170.744 24.5225 172.887 26.8909 172.887 31.0961V42.5031H168.891V32.0466C168.891 29.3561 167.763 28.0026 165.33 28.0026C162.945 28.0026 161.447 29.6459 161.447 32.24V42.5031Z" fill="#2C2C2E"/>
</svg>
