<svg width="185" height="50" viewBox="0 0 185 50" fill="none" xmlns="http://www.w3.org/2000/svg">
<path d="M43.3263 34.2612L43.3005 34.1788L59.7057 19.16V11.9235H33.3861V19.16H49.1069L49.1327 19.2293L32.8878 34.2612V41.4978H59.9699V34.2612H43.3263Z" fill="#201515"/>
<path d="M76.1256 11.2339C73.0897 11.2339 70.6155 11.6917 68.7029 12.6075C66.9217 13.4056 65.4209 14.7205 64.3958 16.3817C63.4153 18.0538 62.7994 19.9145 62.5891 21.8415L70.5749 22.9639C70.8638 21.2623 71.4417 20.0563 72.3082 19.3456C73.2934 18.6024 74.5075 18.2268 75.74 18.284C77.3607 18.284 78.5364 18.7173 79.2674 19.5839C79.991 20.4506 80.3593 21.6509 80.3593 23.2325V24.0211H72.6809C68.7723 24.0211 65.9644 24.8878 64.2574 26.6211C62.55 28.3543 61.6979 30.6423 61.7009 33.4849C61.7009 36.3968 62.5529 38.5635 64.2574 39.9845C65.9615 41.406 68.1051 42.1123 70.6878 42.1035C73.8912 42.1035 76.3555 41.0016 78.0799 38.7974C79.0984 37.4427 79.8257 35.8923 80.2161 34.2432H80.5066L81.6073 41.4794H88.8437V23.1545C88.8437 19.3673 87.8455 16.4337 85.8495 14.3538C83.8531 12.2739 80.6121 11.2339 76.1256 11.2339ZM78.6563 33.8229C77.5079 34.7805 76.0046 35.2571 74.1326 35.2571C72.5897 35.2571 71.5181 34.987 70.9174 34.4468C70.6247 34.1912 70.3915 33.8743 70.235 33.5186C70.0786 33.1629 70.0022 32.7771 70.0118 32.3886C69.9944 32.0222 70.0524 31.6561 70.1812 31.3127C70.31 30.9693 70.5074 30.6557 70.7613 30.3909C71.0358 30.1334 71.3598 29.9342 71.7137 29.8054C72.0676 29.6765 72.4436 29.6207 72.8196 29.6413H80.3722V30.1396C80.3877 30.844 80.2409 31.5425 79.9434 32.1811C79.6456 32.8197 79.2054 33.3814 78.6563 33.8229Z" fill="#201515"/>
<path d="M132.6 11.9235H124.05V41.5018H132.6V11.9235Z" fill="#201515"/>
<path d="M183.075 11.9235C180.66 11.9235 178.756 12.7757 177.364 14.4801C176.364 15.7049 175.604 17.5148 175.084 19.9096H174.833L173.715 11.9235H166.414V41.4978H174.963V26.3314C174.963 24.419 175.411 22.953 176.306 21.9332C177.202 20.9135 178.854 20.4036 181.263 20.4036H184.509V11.9235H183.075Z" fill="#201515"/>
<path d="M157.934 12.8903C155.938 11.703 153.421 11.1108 150.382 11.1137C145.598 11.1137 141.854 12.4758 139.15 15.1999C136.446 17.924 135.094 21.6795 135.094 26.4662C135.025 29.3602 135.657 32.2279 136.936 34.8249C138.106 37.1392 139.929 39.0599 142.179 40.3497C144.444 41.6586 147.138 42.3143 150.26 42.3169C152.961 42.3169 155.218 41.901 157.029 41.0692C158.732 40.322 160.214 39.1507 161.336 37.6676C162.404 36.2115 163.197 34.5726 163.676 32.8317L156.309 30.769C155.999 31.9012 155.402 32.934 154.576 33.7676C153.744 34.5996 152.35 35.0156 150.394 35.0156C148.069 35.0156 146.336 34.3497 145.195 33.018C144.367 32.056 143.847 30.6824 143.618 28.9014H163.789C163.871 28.0695 163.914 27.3718 163.914 26.8085V24.9669C163.963 22.4929 163.452 20.0398 162.419 17.7911C161.453 15.7426 159.889 14.0343 157.934 12.8903ZM150.135 18.1638C153.601 18.1638 155.567 19.8696 156.032 23.2813H143.769C143.964 22.1429 144.436 21.07 145.143 20.1571C146.267 18.8253 147.931 18.1609 150.135 18.1638Z" fill="#201515"/>
<path d="M128.415 0.00277457C127.772 -0.0190989 127.131 0.0885383 126.53 0.319297C125.93 0.550056 125.382 0.899214 124.918 1.34604C124.462 1.79714 124.104 2.33825 123.867 2.93499C123.631 3.53174 123.521 4.17109 123.545 4.81256C123.522 5.45816 123.632 6.10158 123.869 6.70267C124.105 7.3038 124.463 7.84969 124.92 8.30628C125.377 8.76286 125.924 9.12037 126.525 9.35651C127.126 9.59264 127.77 9.70231 128.415 9.6787C129.057 9.70294 129.696 9.5933 130.293 9.3568C130.89 9.12033 131.431 8.76213 131.882 8.30506C132.329 7.84327 132.678 7.29583 132.908 6.69562C133.138 6.09541 133.244 5.45491 133.221 4.81256C133.25 4.17401 133.146 3.53631 132.915 2.94018C132.685 2.34405 132.332 1.80261 131.881 1.3504C131.429 0.898195 130.888 0.54517 130.292 0.313875C129.696 0.0825816 129.058 -0.0218891 128.42 0.00711195L128.415 0.00277457Z" fill="#201515"/>
<path d="M110.76 11.1138C107.848 11.1138 105.508 12.0281 103.741 13.8567C102.432 15.2115 101.471 17.2337 100.859 19.9232H100.586L99.4681 11.9371H92.1664V50H100.716V34.3224H101.028C101.289 35.3677 101.654 36.384 102.12 37.3556C102.843 38.9383 104.029 40.2649 105.521 41.1602C107.069 42.0045 108.812 42.4248 110.574 42.3779C114.153 42.3779 116.879 40.9841 118.751 38.1962C120.622 35.4086 121.558 31.5188 121.558 26.527C121.558 21.7056 120.653 17.9314 118.841 15.2043C117.03 12.4773 114.336 11.1138 110.76 11.1138ZM111.627 32.5458C110.63 33.9902 109.07 34.7124 106.947 34.7124C106.072 34.7528 105.199 34.5841 104.402 34.2201C103.604 33.8561 102.905 33.3074 102.363 32.6195C101.256 31.23 100.704 29.3277 100.707 26.9126V26.3493C100.707 23.8967 101.259 22.019 102.363 20.7162C103.466 19.4133 104.994 18.7691 106.947 18.7836C109.108 18.7836 110.678 19.4696 111.657 20.8418C112.636 22.214 113.126 24.1278 113.126 26.5833C113.132 29.1225 112.635 31.11 111.635 32.5458H111.627Z" fill="#201515"/>
<path d="M29.5781 34.2605H0V41.5057H29.5781V34.2605Z" fill="#2C2C2E"/>
</svg>
